%TF.GenerationSoftware,KiCad,Pcbnew,(5.1.10-1-10_14)*%
%TF.CreationDate,2021-10-31T06:09:43-07:00*%
%TF.ProjectId,o6DOFc_flex_pcb,6f36444f-4663-45f6-966c-65785f706362,rev?*%
%TF.SameCoordinates,Original*%
%TF.FileFunction,Legend,Top*%
%TF.FilePolarity,Positive*%
%FSLAX46Y46*%
G04 Gerber Fmt 4.6, Leading zero omitted, Abs format (unit mm)*
G04 Created by KiCad (PCBNEW (5.1.10-1-10_14)) date 2021-10-31 06:09:43*
%MOMM*%
%LPD*%
G01*
G04 APERTURE LIST*
%ADD10C,0.120000*%
%ADD11C,0.150000*%
G04 APERTURE END LIST*
D10*
%TO.C,U9*%
X67574830Y-92577135D02*
X67334129Y-93475446D01*
X66756962Y-95629460D02*
X66997664Y-94731149D01*
X66756962Y-95629460D02*
X68843362Y-96188509D01*
X67574830Y-92577135D02*
X68985082Y-92955011D01*
%TO.C,U8*%
X63170540Y-92043038D02*
X64068851Y-91802336D01*
X66222865Y-91225170D02*
X65324554Y-91465871D01*
X66222865Y-91225170D02*
X65663816Y-89138770D01*
X63170540Y-92043038D02*
X62792664Y-90632786D01*
%TO.C,U7*%
X64954630Y-96079828D02*
X64297021Y-95422218D01*
X62720172Y-93845370D02*
X63377782Y-94502979D01*
X62720172Y-93845370D02*
X61192822Y-95372721D01*
X64954630Y-96079828D02*
X63922254Y-97112203D01*
%TO.C,U6*%
X98877135Y-91225170D02*
X99775446Y-91465871D01*
X101929460Y-92043038D02*
X101031149Y-91802336D01*
X101929460Y-92043038D02*
X102488509Y-89956638D01*
X98877135Y-91225170D02*
X99255011Y-89814918D01*
%TO.C,U5*%
X98343038Y-95629460D02*
X98102336Y-94731149D01*
X97525170Y-92577135D02*
X97765871Y-93475446D01*
X97525170Y-92577135D02*
X95438770Y-93136184D01*
X98343038Y-95629460D02*
X96932786Y-96007336D01*
%TO.C,U4*%
X102479828Y-93845370D02*
X101822218Y-94502979D01*
X100245370Y-96079828D02*
X100902979Y-95422218D01*
X100245370Y-96079828D02*
X101772721Y-97607178D01*
X102479828Y-93845370D02*
X103512203Y-94877746D01*
%TO.C,U3*%
X97525170Y-59972865D02*
X97765871Y-59074554D01*
X98343038Y-56920540D02*
X98102336Y-57818851D01*
X98343038Y-56920540D02*
X96256638Y-56361491D01*
X97525170Y-59972865D02*
X96114918Y-59594989D01*
%TO.C,U2*%
X101929460Y-60456962D02*
X101031149Y-60697664D01*
X98877135Y-61274830D02*
X99775446Y-61034129D01*
X98877135Y-61274830D02*
X99436184Y-63361230D01*
X101929460Y-60456962D02*
X102307336Y-61867214D01*
%TO.C,U1*%
X100145370Y-56320172D02*
X100802979Y-56977782D01*
X102379828Y-58554630D02*
X101722218Y-57897021D01*
X102379828Y-58554630D02*
X103907178Y-57027279D01*
X100145370Y-56320172D02*
X101177746Y-55287797D01*
%TO.C,C9*%
X67303792Y-97329007D02*
X67032212Y-97256237D01*
X67567788Y-96343763D02*
X67296208Y-96270993D01*
%TO.C,C8*%
X64019195Y-88956822D02*
X63747615Y-89029592D01*
X63755199Y-87971578D02*
X63483619Y-88044348D01*
%TO.C,C7*%
X60991962Y-93386789D02*
X61190773Y-93187978D01*
X61713211Y-94108038D02*
X61912022Y-93909227D01*
%TO.C,C6*%
X103728422Y-91344801D02*
X103655652Y-91616381D01*
X102743178Y-91080805D02*
X102670408Y-91352385D01*
%TO.C,C5*%
X95255652Y-94783619D02*
X95328422Y-95055199D01*
X94270408Y-95047615D02*
X94343178Y-95319195D01*
%TO.C,C4*%
X99790773Y-97860030D02*
X99591962Y-97661219D01*
X100512022Y-97138781D02*
X100313211Y-96939970D01*
%TO.C,C3*%
X97894801Y-55271578D02*
X98166381Y-55344348D01*
X97630805Y-56256822D02*
X97902385Y-56329592D01*
%TO.C,C2*%
X101332212Y-63543763D02*
X101603792Y-63470993D01*
X101596208Y-64529007D02*
X101867788Y-64456237D01*
%TO.C,C1*%
X104062022Y-58959227D02*
X103863211Y-59158038D01*
X103340773Y-58237978D02*
X103141962Y-58436789D01*
%TO.C,U10*%
D11*
X68910315Y-33448022D02*
X69482735Y-34020442D01*
X69583750Y-34054113D01*
X69651093Y-34054113D01*
X69752109Y-34020442D01*
X69886796Y-33885755D01*
X69920467Y-33784739D01*
X69920467Y-33717396D01*
X69886796Y-33616381D01*
X69314376Y-33043961D01*
X70728589Y-33043961D02*
X70324528Y-33448022D01*
X70526559Y-33245991D02*
X69819452Y-32538885D01*
X69853124Y-32707243D01*
X69853124Y-32841930D01*
X69819452Y-32942946D01*
X70459215Y-31899121D02*
X70526559Y-31831778D01*
X70627574Y-31798106D01*
X70694918Y-31798106D01*
X70795933Y-31831778D01*
X70964292Y-31932793D01*
X71132650Y-32101152D01*
X71233666Y-32269511D01*
X71267337Y-32370526D01*
X71267337Y-32437869D01*
X71233666Y-32538885D01*
X71166322Y-32606228D01*
X71065307Y-32639900D01*
X70997963Y-32639900D01*
X70896948Y-32606228D01*
X70728589Y-32505213D01*
X70560231Y-32336854D01*
X70459215Y-32168495D01*
X70425544Y-32067480D01*
X70425544Y-32000137D01*
X70459215Y-31899121D01*
%TO.C,U9*%
X66658742Y-95988660D02*
X66449222Y-96770600D01*
X66470569Y-96874917D01*
X66504241Y-96933238D01*
X66583909Y-97003884D01*
X66767895Y-97053183D01*
X66872213Y-97031836D01*
X66930534Y-96998164D01*
X67001180Y-96918496D01*
X67210700Y-96136556D01*
X67457842Y-97238054D02*
X67641828Y-97287353D01*
X67746145Y-97266006D01*
X67804467Y-97232334D01*
X67933434Y-97118994D01*
X68028729Y-96947333D01*
X68127327Y-96579361D01*
X68105980Y-96475044D01*
X68072308Y-96416722D01*
X67992640Y-96346076D01*
X67808654Y-96296778D01*
X67704336Y-96318125D01*
X67646015Y-96351796D01*
X67575369Y-96431465D01*
X67513746Y-96661447D01*
X67535093Y-96765765D01*
X67568764Y-96824086D01*
X67648433Y-96894732D01*
X67832419Y-96944031D01*
X67936736Y-96922683D01*
X67995057Y-96889012D01*
X68065703Y-96809344D01*
%TO.C,U8*%
X67246578Y-89375274D02*
X66464638Y-89584794D01*
X66384970Y-89655440D01*
X66351298Y-89713761D01*
X66329951Y-89818079D01*
X66379250Y-90002065D01*
X66449896Y-90081733D01*
X66508217Y-90115405D01*
X66612535Y-90136752D01*
X67394475Y-89927231D01*
X67140728Y-90636108D02*
X67162075Y-90531790D01*
X67195747Y-90473469D01*
X67275415Y-90402823D01*
X67321412Y-90390498D01*
X67425729Y-90411846D01*
X67484050Y-90445517D01*
X67554696Y-90525185D01*
X67603995Y-90709171D01*
X67582648Y-90813489D01*
X67548976Y-90871810D01*
X67469308Y-90942456D01*
X67423312Y-90954781D01*
X67318994Y-90933434D01*
X67260673Y-90899762D01*
X67190027Y-90820094D01*
X67140728Y-90636108D01*
X67070082Y-90556440D01*
X67011761Y-90522768D01*
X66907443Y-90501421D01*
X66723458Y-90550720D01*
X66643789Y-90621366D01*
X66610118Y-90679687D01*
X66588771Y-90784005D01*
X66638069Y-90967990D01*
X66708715Y-91047659D01*
X66767036Y-91081330D01*
X66871354Y-91102677D01*
X67055340Y-91053379D01*
X67135008Y-90982733D01*
X67168680Y-90924411D01*
X67190027Y-90820094D01*
%TO.C,U7*%
X60606259Y-93883755D02*
X61178679Y-94456175D01*
X61279694Y-94489847D01*
X61347038Y-94489847D01*
X61448053Y-94456175D01*
X61582740Y-94321488D01*
X61616412Y-94220473D01*
X61616412Y-94153129D01*
X61582740Y-94052114D01*
X61010320Y-93479694D01*
X61279694Y-93210320D02*
X61751099Y-92738916D01*
X62155160Y-93749068D01*
%TO.C,U6*%
X102288660Y-92141257D02*
X103070600Y-92350777D01*
X103174917Y-92329430D01*
X103233238Y-92295758D01*
X103303884Y-92216090D01*
X103353183Y-92032104D01*
X103331836Y-91927786D01*
X103298164Y-91869465D01*
X103218496Y-91798819D01*
X102436556Y-91589299D01*
X102670726Y-90715366D02*
X102621427Y-90899352D01*
X102642774Y-91003670D01*
X102676446Y-91061991D01*
X102789786Y-91190958D01*
X102961447Y-91286253D01*
X103329419Y-91384851D01*
X103433736Y-91363504D01*
X103492057Y-91329832D01*
X103562703Y-91250164D01*
X103612002Y-91066178D01*
X103590655Y-90961861D01*
X103556983Y-90903539D01*
X103477315Y-90832893D01*
X103247333Y-90771270D01*
X103143015Y-90792617D01*
X103084694Y-90826289D01*
X103014048Y-90905957D01*
X102964749Y-91089943D01*
X102986096Y-91194260D01*
X103019768Y-91252582D01*
X103099436Y-91323228D01*
%TO.C,U5*%
X95675274Y-91553421D02*
X95884794Y-92335361D01*
X95955440Y-92415029D01*
X96013761Y-92448701D01*
X96118079Y-92470048D01*
X96302065Y-92420749D01*
X96381733Y-92350103D01*
X96415405Y-92291782D01*
X96436752Y-92187464D01*
X96227231Y-91405524D01*
X97147161Y-91159030D02*
X96687196Y-91282277D01*
X96764447Y-91754566D01*
X96798119Y-91696245D01*
X96877787Y-91625599D01*
X97107769Y-91563976D01*
X97212087Y-91585323D01*
X97270408Y-91618994D01*
X97341054Y-91698663D01*
X97402677Y-91928645D01*
X97381330Y-92032963D01*
X97347659Y-92091284D01*
X97267990Y-92161930D01*
X97038008Y-92223553D01*
X96933690Y-92202206D01*
X96875369Y-92168534D01*
%TO.C,U4*%
X99980710Y-96341793D02*
X99408290Y-96914213D01*
X99374618Y-97015228D01*
X99374618Y-97082572D01*
X99408290Y-97183587D01*
X99542977Y-97318274D01*
X99643992Y-97351946D01*
X99711336Y-97351946D01*
X99812351Y-97318274D01*
X100384771Y-96745854D01*
X100788832Y-97621320D02*
X100317427Y-98092724D01*
X100889847Y-97183587D02*
X100216412Y-97520305D01*
X100654145Y-97958037D01*
%TO.C,U3*%
X97252838Y-55109030D02*
X97043318Y-55890970D01*
X97064665Y-55995287D01*
X97098337Y-56053608D01*
X97178005Y-56124254D01*
X97361991Y-56173553D01*
X97466309Y-56152206D01*
X97524630Y-56118534D01*
X97595276Y-56038866D01*
X97804796Y-55256926D01*
X98172768Y-55355524D02*
X98770722Y-55515745D01*
X98350149Y-55797444D01*
X98488138Y-55834418D01*
X98567806Y-55905064D01*
X98601478Y-55963385D01*
X98622825Y-56067703D01*
X98561202Y-56297685D01*
X98490556Y-56377353D01*
X98432234Y-56411025D01*
X98327917Y-56432372D01*
X98051938Y-56358424D01*
X97972270Y-56287778D01*
X97938598Y-56229457D01*
%TO.C,U2*%
X98516948Y-61369370D02*
X97735008Y-61578890D01*
X97655340Y-61649536D01*
X97621668Y-61707857D01*
X97600321Y-61812175D01*
X97649620Y-61996161D01*
X97720266Y-62075829D01*
X97778587Y-62109501D01*
X97882905Y-62130848D01*
X98664845Y-61921327D01*
X98683775Y-62359945D02*
X98742096Y-62393617D01*
X98812742Y-62473285D01*
X98874365Y-62703267D01*
X98853018Y-62807585D01*
X98819346Y-62865906D01*
X98739678Y-62936552D01*
X98647685Y-62961202D01*
X98497371Y-62952179D01*
X97797517Y-62548118D01*
X97957738Y-63146072D01*
%TO.C,U1*%
X102641793Y-58819289D02*
X103214213Y-59391709D01*
X103315228Y-59425381D01*
X103382572Y-59425381D01*
X103483587Y-59391709D01*
X103618274Y-59257022D01*
X103651946Y-59156007D01*
X103651946Y-59088663D01*
X103618274Y-58987648D01*
X103045854Y-58415228D01*
X104460068Y-58415228D02*
X104056007Y-58819289D01*
X104258037Y-58617259D02*
X103550931Y-57910152D01*
X103584602Y-58078511D01*
X103584602Y-58213198D01*
X103550931Y-58314213D01*
%TO.C,C9*%
X66676465Y-98483111D02*
X66618144Y-98516782D01*
X66467830Y-98525805D01*
X66375837Y-98501155D01*
X66250173Y-98418185D01*
X66182829Y-98301542D01*
X66161482Y-98197225D01*
X66164784Y-98000914D01*
X66201759Y-97862925D01*
X66297054Y-97691263D01*
X66367700Y-97611595D01*
X66484342Y-97544252D01*
X66634656Y-97535229D01*
X66726649Y-97559879D01*
X66852314Y-97642849D01*
X66885986Y-97701171D01*
X67111781Y-98698351D02*
X67295767Y-98747649D01*
X67400084Y-98726302D01*
X67458405Y-98692631D01*
X67587373Y-98579291D01*
X67682668Y-98407630D01*
X67781266Y-98039658D01*
X67759919Y-97935340D01*
X67726247Y-97877019D01*
X67646579Y-97806373D01*
X67462593Y-97757074D01*
X67358275Y-97778421D01*
X67299954Y-97812093D01*
X67229308Y-97891761D01*
X67167684Y-98121744D01*
X67189031Y-98226061D01*
X67222703Y-98284382D01*
X67302371Y-98355028D01*
X67486357Y-98404327D01*
X67590675Y-98382980D01*
X67648996Y-98349308D01*
X67719642Y-98269640D01*
%TO.C,C8*%
X64052965Y-90269969D02*
X64019293Y-90328290D01*
X63893629Y-90411260D01*
X63801636Y-90435910D01*
X63651322Y-90426887D01*
X63534679Y-90359544D01*
X63464033Y-90279876D01*
X63368738Y-90108215D01*
X63331764Y-89970225D01*
X63328462Y-89773915D01*
X63349809Y-89669597D01*
X63417152Y-89552955D01*
X63542817Y-89469984D01*
X63634810Y-89445334D01*
X63785124Y-89454357D01*
X63843445Y-89488029D01*
X64481676Y-89662107D02*
X64377358Y-89640760D01*
X64319037Y-89607088D01*
X64248391Y-89527420D01*
X64236066Y-89481424D01*
X64257413Y-89377106D01*
X64291085Y-89318785D01*
X64370753Y-89248139D01*
X64554739Y-89198840D01*
X64659057Y-89220187D01*
X64717378Y-89253859D01*
X64788024Y-89333527D01*
X64800349Y-89379524D01*
X64779002Y-89483841D01*
X64745330Y-89542162D01*
X64665662Y-89612808D01*
X64481676Y-89662107D01*
X64402007Y-89732753D01*
X64368336Y-89791074D01*
X64346989Y-89895392D01*
X64396288Y-90079378D01*
X64466933Y-90159046D01*
X64525255Y-90192718D01*
X64629572Y-90214065D01*
X64813558Y-90164766D01*
X64893226Y-90094120D01*
X64926898Y-90035799D01*
X64948245Y-89931481D01*
X64898946Y-89747495D01*
X64828300Y-89667827D01*
X64769979Y-89634155D01*
X64665662Y-89612808D01*
%TO.C,C7*%
X60575516Y-93007234D02*
X60575516Y-93074577D01*
X60508172Y-93209264D01*
X60440829Y-93276608D01*
X60306141Y-93343951D01*
X60171454Y-93343951D01*
X60070439Y-93310280D01*
X59902080Y-93209264D01*
X59801065Y-93108249D01*
X59700050Y-92939890D01*
X59666378Y-92838875D01*
X59666378Y-92704188D01*
X59733722Y-92569501D01*
X59801065Y-92502157D01*
X59935752Y-92434814D01*
X60003096Y-92434814D01*
X60171454Y-92131768D02*
X60642859Y-91660364D01*
X61046920Y-92670516D01*
%TO.C,C6*%
X104882526Y-91972127D02*
X104916197Y-92030448D01*
X104925220Y-92180762D01*
X104900570Y-92272755D01*
X104817600Y-92398419D01*
X104700957Y-92465763D01*
X104596640Y-92487110D01*
X104400329Y-92483808D01*
X104262340Y-92446833D01*
X104090678Y-92351538D01*
X104011010Y-92280892D01*
X103943667Y-92164250D01*
X103934644Y-92013936D01*
X103959294Y-91921943D01*
X104042264Y-91796278D01*
X104100586Y-91762606D01*
X104230438Y-90910020D02*
X104181139Y-91094006D01*
X104202486Y-91198324D01*
X104236157Y-91256645D01*
X104349497Y-91385612D01*
X104521159Y-91480908D01*
X104889130Y-91579505D01*
X104993448Y-91558158D01*
X105051769Y-91524487D01*
X105122415Y-91444818D01*
X105171714Y-91260832D01*
X105150367Y-91156515D01*
X105116695Y-91098194D01*
X105037027Y-91027548D01*
X104807045Y-90965924D01*
X104702727Y-90987271D01*
X104644406Y-91020943D01*
X104573760Y-91100611D01*
X104524461Y-91284597D01*
X104545808Y-91388915D01*
X104579480Y-91447236D01*
X104659148Y-91517882D01*
%TO.C,C5*%
X95792578Y-94612743D02*
X95734257Y-94579071D01*
X95651287Y-94453407D01*
X95626637Y-94361414D01*
X95635660Y-94211100D01*
X95703003Y-94094457D01*
X95782671Y-94023811D01*
X95954332Y-93928516D01*
X96092322Y-93891542D01*
X96288632Y-93888240D01*
X96392950Y-93909587D01*
X96509592Y-93976930D01*
X96592563Y-94102595D01*
X96617213Y-94194588D01*
X96608190Y-94344902D01*
X96574518Y-94403223D01*
X96900681Y-95252507D02*
X96777434Y-94792542D01*
X96305144Y-94869793D01*
X96363466Y-94903464D01*
X96434112Y-94983133D01*
X96495735Y-95213115D01*
X96474388Y-95317432D01*
X96440716Y-95375754D01*
X96361048Y-95446400D01*
X96131066Y-95508023D01*
X96026748Y-95486676D01*
X95968427Y-95453004D01*
X95897781Y-95373336D01*
X95836157Y-95143354D01*
X95857504Y-95039036D01*
X95891176Y-94980715D01*
%TO.C,C4*%
X98670439Y-98545850D02*
X98603096Y-98545850D01*
X98468409Y-98478506D01*
X98401065Y-98411163D01*
X98333722Y-98276475D01*
X98333722Y-98141788D01*
X98367393Y-98040773D01*
X98468409Y-97872414D01*
X98569424Y-97771399D01*
X98737783Y-97670384D01*
X98838798Y-97636712D01*
X98973485Y-97636712D01*
X99108172Y-97704056D01*
X99175516Y-97771399D01*
X99242859Y-97906086D01*
X99242859Y-97973430D01*
X99680592Y-98747880D02*
X99209187Y-99219285D01*
X99781607Y-98310147D02*
X99108172Y-98646865D01*
X99545905Y-99084598D01*
%TO.C,C3*%
X98015280Y-54721148D02*
X97956959Y-54754819D01*
X97806645Y-54763842D01*
X97714652Y-54739192D01*
X97588988Y-54656222D01*
X97521644Y-54539579D01*
X97500297Y-54435262D01*
X97503599Y-54238951D01*
X97540574Y-54100962D01*
X97635869Y-53929300D01*
X97706515Y-53849632D01*
X97823157Y-53782289D01*
X97973471Y-53773266D01*
X98065464Y-53797916D01*
X98191129Y-53880886D01*
X98224801Y-53939208D01*
X98571425Y-53933488D02*
X99169379Y-54093709D01*
X98748806Y-54375408D01*
X98886796Y-54412382D01*
X98966464Y-54483028D01*
X99000136Y-54541349D01*
X99021483Y-54645667D01*
X98959859Y-54875649D01*
X98889213Y-54955317D01*
X98830892Y-54988989D01*
X98726575Y-55010336D01*
X98450596Y-54936388D01*
X98370928Y-54865742D01*
X98337256Y-54807421D01*
%TO.C,C2*%
X101161336Y-63006836D02*
X101127664Y-63065157D01*
X101002000Y-63148127D01*
X100910007Y-63172777D01*
X100759693Y-63163754D01*
X100643050Y-63096411D01*
X100572404Y-63016743D01*
X100477109Y-62845082D01*
X100440135Y-62707092D01*
X100436833Y-62510782D01*
X100458180Y-62406464D01*
X100525523Y-62289822D01*
X100651188Y-62206851D01*
X100743181Y-62182201D01*
X100893495Y-62191224D01*
X100951816Y-62224896D01*
X101319788Y-62126298D02*
X101353460Y-62067977D01*
X101433128Y-61997331D01*
X101663110Y-61935707D01*
X101767428Y-61957054D01*
X101825749Y-61990726D01*
X101896395Y-62070394D01*
X101921044Y-62162387D01*
X101912022Y-62312701D01*
X101507961Y-63012555D01*
X102105915Y-62852334D01*
%TO.C,C1*%
X104747842Y-60079560D02*
X104747842Y-60146903D01*
X104680498Y-60281590D01*
X104613155Y-60348934D01*
X104478467Y-60416277D01*
X104343780Y-60416277D01*
X104242765Y-60382606D01*
X104074406Y-60281590D01*
X103973391Y-60180575D01*
X103872376Y-60012216D01*
X103838704Y-59911201D01*
X103838704Y-59776514D01*
X103906048Y-59641827D01*
X103973391Y-59574483D01*
X104108078Y-59507140D01*
X104175422Y-59507140D01*
X105488620Y-59473468D02*
X105084559Y-59877529D01*
X105286590Y-59675499D02*
X104579483Y-58968392D01*
X104613155Y-59136751D01*
X104613155Y-59271438D01*
X104579483Y-59372453D01*
%TD*%
M02*
