M48
; DRILL file {KiCad (5.1.10-1-10_14)} date Sunday, October 31, 2021 at 06:09:46 AM
; FORMAT={-:-/ absolute / inch / decimal}
; #@! TF.CreationDate,2021-10-31T06:09:46-07:00
; #@! TF.GenerationSoftware,Kicad,Pcbnew,(5.1.10-1-10_14)
; #@! TF.FileFunction,Plated,1,2,PTH
FMAT,2
INCH
T1C0.0157
%
G90
G05
T1
X2.3346Y-3.6142
X2.3819Y-3.4961
X2.5669Y-3.6811
X2.5787Y-3.874
X2.8051Y-3.75
X3.1062Y-2.1298
X3.1496Y-2.063
X3.1811Y-2.126
X3.2087Y-2.0128
X3.2323Y-2.0669
X3.2677Y-1.9567
X3.2795Y-2.0079
X3.2933Y-1.872
X3.3307Y-1.9606
X3.7244Y-3.8386
X3.7303Y-2.126
X3.8189Y-2.0866
X3.878Y-3.9173
X3.9134Y-2.0906
X3.9528Y-3.6811
X4.0453Y-3.4941
X4.0512Y-2.4016
X4.1339Y-2.372
X4.1437Y-3.6417
X4.1496Y-2.5354
T0
M30
