%TF.GenerationSoftware,KiCad,Pcbnew,(5.1.10-1-10_14)*%
%TF.CreationDate,2021-10-31T06:09:43-07:00*%
%TF.ProjectId,o6DOFc_flex_pcb,6f36444f-4663-45f6-966c-65785f706362,rev?*%
%TF.SameCoordinates,Original*%
%TF.FileFunction,Copper,L1,Top*%
%TF.FilePolarity,Positive*%
%FSLAX46Y46*%
G04 Gerber Fmt 4.6, Leading zero omitted, Abs format (unit mm)*
G04 Created by KiCad (PCBNEW (5.1.10-1-10_14)) date 2021-10-31 06:09:43*
%MOMM*%
%LPD*%
G01*
G04 APERTURE LIST*
%TA.AperFunction,SMDPad,CuDef*%
%ADD10C,0.100000*%
%TD*%
%TA.AperFunction,ViaPad*%
%ADD11C,0.800000*%
%TD*%
%TA.AperFunction,Conductor*%
%ADD12C,0.250000*%
%TD*%
%TA.AperFunction,Conductor*%
%ADD13C,0.650000*%
%TD*%
%TA.AperFunction,Conductor*%
%ADD14C,0.254000*%
%TD*%
%TA.AperFunction,Conductor*%
%ADD15C,0.100000*%
%TD*%
G04 APERTURE END LIST*
%TA.AperFunction,SMDPad,CuDef*%
D10*
%TO.P,U10,1*%
%TO.N,VCC*%
G36*
X67676919Y-29721232D02*
G01*
X69253767Y-31298080D01*
X68794147Y-31757700D01*
X67217299Y-30180852D01*
X67676919Y-29721232D01*
G37*
%TD.AperFunction*%
%TA.AperFunction,SMDPad,CuDef*%
%TO.P,U10,2*%
%TO.N,/HES_O_1*%
G36*
X66969813Y-30428339D02*
G01*
X68546661Y-32005187D01*
X68087041Y-32464807D01*
X66510193Y-30887959D01*
X66969813Y-30428339D01*
G37*
%TD.AperFunction*%
%TA.AperFunction,SMDPad,CuDef*%
%TO.P,U10,3*%
%TO.N,/HES_O_2*%
G36*
X66262706Y-31135446D02*
G01*
X67839554Y-32712294D01*
X67379934Y-33171914D01*
X65803086Y-31595066D01*
X66262706Y-31135446D01*
G37*
%TD.AperFunction*%
%TA.AperFunction,SMDPad,CuDef*%
%TO.P,U10,4*%
%TO.N,/HES_O_3*%
G36*
X65555599Y-31842553D02*
G01*
X67132447Y-33419401D01*
X66672827Y-33879021D01*
X65095979Y-32302173D01*
X65555599Y-31842553D01*
G37*
%TD.AperFunction*%
%TA.AperFunction,SMDPad,CuDef*%
%TO.P,U10,5*%
%TO.N,/HES_O_4*%
G36*
X64848492Y-32549659D02*
G01*
X66425340Y-34126507D01*
X65965720Y-34586127D01*
X64388872Y-33009279D01*
X64848492Y-32549659D01*
G37*
%TD.AperFunction*%
%TA.AperFunction,SMDPad,CuDef*%
%TO.P,U10,6*%
%TO.N,/HES_O_5*%
G36*
X64141386Y-33256766D02*
G01*
X65718234Y-34833614D01*
X65258614Y-35293234D01*
X63681766Y-33716386D01*
X64141386Y-33256766D01*
G37*
%TD.AperFunction*%
%TA.AperFunction,SMDPad,CuDef*%
%TO.P,U10,7*%
%TO.N,/HES_O_6*%
G36*
X63434279Y-33963873D02*
G01*
X65011127Y-35540721D01*
X64551507Y-36000341D01*
X62974659Y-34423493D01*
X63434279Y-33963873D01*
G37*
%TD.AperFunction*%
%TA.AperFunction,SMDPad,CuDef*%
%TO.P,U10,8*%
%TO.N,/HES_O_7*%
G36*
X62727172Y-34670980D02*
G01*
X64304020Y-36247828D01*
X63844400Y-36707448D01*
X62267552Y-35130600D01*
X62727172Y-34670980D01*
G37*
%TD.AperFunction*%
%TA.AperFunction,SMDPad,CuDef*%
%TO.P,U10,9*%
%TO.N,/HES_O_8*%
G36*
X62020065Y-35378086D02*
G01*
X63596913Y-36954934D01*
X63137293Y-37414554D01*
X61560445Y-35837706D01*
X62020065Y-35378086D01*
G37*
%TD.AperFunction*%
%TA.AperFunction,SMDPad,CuDef*%
%TO.P,U10,10*%
%TO.N,/HES_O_9*%
G36*
X61312958Y-36085193D02*
G01*
X62889806Y-37662041D01*
X62430186Y-38121661D01*
X60853338Y-36544813D01*
X61312958Y-36085193D01*
G37*
%TD.AperFunction*%
%TA.AperFunction,SMDPad,CuDef*%
%TO.P,U10,11*%
%TO.N,GND*%
G36*
X60605852Y-36792300D02*
G01*
X62182700Y-38369148D01*
X61723080Y-38828768D01*
X60146232Y-37251920D01*
X60605852Y-36792300D01*
G37*
%TD.AperFunction*%
%TD*%
%TA.AperFunction,SMDPad,CuDef*%
%TO.P,U9,3*%
%TO.N,GND*%
G36*
X67472268Y-93771279D02*
G01*
X67265213Y-94544020D01*
X66395880Y-94311083D01*
X66602935Y-93538342D01*
X67472268Y-93771279D01*
G37*
%TD.AperFunction*%
%TA.AperFunction,SMDPad,CuDef*%
%TO.P,U9,2*%
%TO.N,/HES_O_9*%
G36*
X69649998Y-93371288D02*
G01*
X69442943Y-94144029D01*
X68573610Y-93911092D01*
X68780665Y-93138351D01*
X69649998Y-93371288D01*
G37*
%TD.AperFunction*%
%TA.AperFunction,SMDPad,CuDef*%
%TO.P,U9,1*%
%TO.N,VCC*%
G36*
X69158242Y-95206547D02*
G01*
X68951187Y-95979288D01*
X68081854Y-95746351D01*
X68288909Y-94973610D01*
X69158242Y-95206547D01*
G37*
%TD.AperFunction*%
%TD*%
%TA.AperFunction,SMDPad,CuDef*%
%TO.P,U8,3*%
%TO.N,GND*%
G36*
X64255980Y-91534787D02*
G01*
X65028721Y-91327732D01*
X65261658Y-92197065D01*
X64488917Y-92404120D01*
X64255980Y-91534787D01*
G37*
%TD.AperFunction*%
%TA.AperFunction,SMDPad,CuDef*%
%TO.P,U8,2*%
%TO.N,/HES_O_8*%
G36*
X62820712Y-89848813D02*
G01*
X63593453Y-89641758D01*
X63826390Y-90511091D01*
X63053649Y-90718146D01*
X62820712Y-89848813D01*
G37*
%TD.AperFunction*%
%TA.AperFunction,SMDPad,CuDef*%
%TO.P,U8,1*%
%TO.N,VCC*%
G36*
X64655971Y-89357057D02*
G01*
X65428712Y-89150002D01*
X65661649Y-90019335D01*
X64888908Y-90226390D01*
X64655971Y-89357057D01*
G37*
%TD.AperFunction*%
%TD*%
%TA.AperFunction,SMDPad,CuDef*%
%TO.P,U7,3*%
%TO.N,GND*%
G36*
X63971752Y-95393934D02*
G01*
X63406066Y-94828248D01*
X64042462Y-94191852D01*
X64608148Y-94757538D01*
X63971752Y-95393934D01*
G37*
%TD.AperFunction*%
%TA.AperFunction,SMDPad,CuDef*%
%TO.P,U7,2*%
%TO.N,/HES_O_7*%
G36*
X63229290Y-97479899D02*
G01*
X62663604Y-96914213D01*
X63300000Y-96277817D01*
X63865686Y-96843503D01*
X63229290Y-97479899D01*
G37*
%TD.AperFunction*%
%TA.AperFunction,SMDPad,CuDef*%
%TO.P,U7,1*%
%TO.N,VCC*%
G36*
X61885787Y-96136396D02*
G01*
X61320101Y-95570710D01*
X61956497Y-94934314D01*
X62522183Y-95500000D01*
X61885787Y-96136396D01*
G37*
%TD.AperFunction*%
%TD*%
%TA.AperFunction,SMDPad,CuDef*%
%TO.P,U6,3*%
%TO.N,GND*%
G36*
X100071279Y-91327732D02*
G01*
X100844020Y-91534787D01*
X100611083Y-92404120D01*
X99838342Y-92197065D01*
X100071279Y-91327732D01*
G37*
%TD.AperFunction*%
%TA.AperFunction,SMDPad,CuDef*%
%TO.P,U6,2*%
%TO.N,/HES_O_6*%
G36*
X99671288Y-89150002D02*
G01*
X100444029Y-89357057D01*
X100211092Y-90226390D01*
X99438351Y-90019335D01*
X99671288Y-89150002D01*
G37*
%TD.AperFunction*%
%TA.AperFunction,SMDPad,CuDef*%
%TO.P,U6,1*%
%TO.N,VCC*%
G36*
X101506547Y-89641758D02*
G01*
X102279288Y-89848813D01*
X102046351Y-90718146D01*
X101273610Y-90511091D01*
X101506547Y-89641758D01*
G37*
%TD.AperFunction*%
%TD*%
%TA.AperFunction,SMDPad,CuDef*%
%TO.P,U5,3*%
%TO.N,GND*%
G36*
X97834787Y-94544020D02*
G01*
X97627732Y-93771279D01*
X98497065Y-93538342D01*
X98704120Y-94311083D01*
X97834787Y-94544020D01*
G37*
%TD.AperFunction*%
%TA.AperFunction,SMDPad,CuDef*%
%TO.P,U5,2*%
%TO.N,/HES_O_5*%
G36*
X96148813Y-95979288D02*
G01*
X95941758Y-95206547D01*
X96811091Y-94973610D01*
X97018146Y-95746351D01*
X96148813Y-95979288D01*
G37*
%TD.AperFunction*%
%TA.AperFunction,SMDPad,CuDef*%
%TO.P,U5,1*%
%TO.N,VCC*%
G36*
X95657057Y-94144029D02*
G01*
X95450002Y-93371288D01*
X96319335Y-93138351D01*
X96526390Y-93911092D01*
X95657057Y-94144029D01*
G37*
%TD.AperFunction*%
%TD*%
%TA.AperFunction,SMDPad,CuDef*%
%TO.P,U4,3*%
%TO.N,GND*%
G36*
X101793934Y-94828248D02*
G01*
X101228248Y-95393934D01*
X100591852Y-94757538D01*
X101157538Y-94191852D01*
X101793934Y-94828248D01*
G37*
%TD.AperFunction*%
%TA.AperFunction,SMDPad,CuDef*%
%TO.P,U4,2*%
%TO.N,/HES_O_4*%
G36*
X103879899Y-95570710D02*
G01*
X103314213Y-96136396D01*
X102677817Y-95500000D01*
X103243503Y-94934314D01*
X103879899Y-95570710D01*
G37*
%TD.AperFunction*%
%TA.AperFunction,SMDPad,CuDef*%
%TO.P,U4,1*%
%TO.N,VCC*%
G36*
X102536396Y-96914213D02*
G01*
X101970710Y-97479899D01*
X101334314Y-96843503D01*
X101900000Y-96277817D01*
X102536396Y-96914213D01*
G37*
%TD.AperFunction*%
%TD*%
%TA.AperFunction,SMDPad,CuDef*%
%TO.P,U3,3*%
%TO.N,GND*%
G36*
X97627732Y-58778721D02*
G01*
X97834787Y-58005980D01*
X98704120Y-58238917D01*
X98497065Y-59011658D01*
X97627732Y-58778721D01*
G37*
%TD.AperFunction*%
%TA.AperFunction,SMDPad,CuDef*%
%TO.P,U3,2*%
%TO.N,/HES_O_3*%
G36*
X95450002Y-59178712D02*
G01*
X95657057Y-58405971D01*
X96526390Y-58638908D01*
X96319335Y-59411649D01*
X95450002Y-59178712D01*
G37*
%TD.AperFunction*%
%TA.AperFunction,SMDPad,CuDef*%
%TO.P,U3,1*%
%TO.N,VCC*%
G36*
X95941758Y-57343453D02*
G01*
X96148813Y-56570712D01*
X97018146Y-56803649D01*
X96811091Y-57576390D01*
X95941758Y-57343453D01*
G37*
%TD.AperFunction*%
%TD*%
%TA.AperFunction,SMDPad,CuDef*%
%TO.P,U2,3*%
%TO.N,GND*%
G36*
X100844020Y-60965213D02*
G01*
X100071279Y-61172268D01*
X99838342Y-60302935D01*
X100611083Y-60095880D01*
X100844020Y-60965213D01*
G37*
%TD.AperFunction*%
%TA.AperFunction,SMDPad,CuDef*%
%TO.P,U2,2*%
%TO.N,/HES_O_2*%
G36*
X102279288Y-62651187D02*
G01*
X101506547Y-62858242D01*
X101273610Y-61988909D01*
X102046351Y-61781854D01*
X102279288Y-62651187D01*
G37*
%TD.AperFunction*%
%TA.AperFunction,SMDPad,CuDef*%
%TO.P,U2,1*%
%TO.N,VCC*%
G36*
X100444029Y-63142943D02*
G01*
X99671288Y-63349998D01*
X99438351Y-62480665D01*
X100211092Y-62273610D01*
X100444029Y-63142943D01*
G37*
%TD.AperFunction*%
%TD*%
%TA.AperFunction,SMDPad,CuDef*%
%TO.P,U1,3*%
%TO.N,GND*%
G36*
X101128248Y-57006066D02*
G01*
X101693934Y-57571752D01*
X101057538Y-58208148D01*
X100491852Y-57642462D01*
X101128248Y-57006066D01*
G37*
%TD.AperFunction*%
%TA.AperFunction,SMDPad,CuDef*%
%TO.P,U1,2*%
%TO.N,/HES_O_1*%
G36*
X101870710Y-54920101D02*
G01*
X102436396Y-55485787D01*
X101800000Y-56122183D01*
X101234314Y-55556497D01*
X101870710Y-54920101D01*
G37*
%TD.AperFunction*%
%TA.AperFunction,SMDPad,CuDef*%
%TO.P,U1,1*%
%TO.N,VCC*%
G36*
X103214213Y-56263604D02*
G01*
X103779899Y-56829290D01*
X103143503Y-57465686D01*
X102577817Y-56900000D01*
X103214213Y-56263604D01*
G37*
%TD.AperFunction*%
%TD*%
%TO.P,C9,2*%
%TO.N,GND*%
%TA.AperFunction,SMDPad,CuDef*%
G36*
G01*
X67050778Y-96474402D02*
X66921369Y-96957365D01*
G75*
G02*
X66645802Y-97116464I-217333J58234D01*
G01*
X66211135Y-96999995D01*
G75*
G02*
X66052036Y-96724428I58234J217333D01*
G01*
X66181445Y-96241465D01*
G75*
G02*
X66457012Y-96082366I217333J-58234D01*
G01*
X66891679Y-96198835D01*
G75*
G02*
X67050778Y-96474402I-58234J-217333D01*
G01*
G37*
%TD.AperFunction*%
%TO.P,C9,1*%
%TO.N,VCC*%
%TA.AperFunction,SMDPad,CuDef*%
G36*
G01*
X68547964Y-96875572D02*
X68418555Y-97358535D01*
G75*
G02*
X68142988Y-97517634I-217333J58234D01*
G01*
X67708321Y-97401165D01*
G75*
G02*
X67549222Y-97125598I58234J217333D01*
G01*
X67678631Y-96642635D01*
G75*
G02*
X67954198Y-96483536I217333J-58234D01*
G01*
X68388865Y-96600005D01*
G75*
G02*
X68547964Y-96875572I-58234J-217333D01*
G01*
G37*
%TD.AperFunction*%
%TD*%
%TO.P,C8,2*%
%TO.N,GND*%
%TA.AperFunction,SMDPad,CuDef*%
G36*
G01*
X63372776Y-88343220D02*
X63502185Y-88826183D01*
G75*
G02*
X63343086Y-89101750I-217333J-58234D01*
G01*
X62908419Y-89218219D01*
G75*
G02*
X62632852Y-89059120I-58234J217333D01*
G01*
X62503443Y-88576157D01*
G75*
G02*
X62662542Y-88300590I217333J58234D01*
G01*
X63097209Y-88184121D01*
G75*
G02*
X63372776Y-88343220I58234J-217333D01*
G01*
G37*
%TD.AperFunction*%
%TO.P,C8,1*%
%TO.N,VCC*%
%TA.AperFunction,SMDPad,CuDef*%
G36*
G01*
X64869962Y-87942050D02*
X64999371Y-88425013D01*
G75*
G02*
X64840272Y-88700580I-217333J-58234D01*
G01*
X64405605Y-88817049D01*
G75*
G02*
X64130038Y-88657950I-58234J217333D01*
G01*
X64000629Y-88174987D01*
G75*
G02*
X64159728Y-87899420I217333J58234D01*
G01*
X64594395Y-87782951D01*
G75*
G02*
X64869962Y-87942050I58234J-217333D01*
G01*
G37*
%TD.AperFunction*%
%TD*%
%TO.P,C7,2*%
%TO.N,GND*%
%TA.AperFunction,SMDPad,CuDef*%
G36*
G01*
X61858579Y-93594975D02*
X61505025Y-93241421D01*
G75*
G02*
X61505025Y-92923223I159099J159099D01*
G01*
X61823223Y-92605025D01*
G75*
G02*
X62141421Y-92605025I159099J-159099D01*
G01*
X62494975Y-92958579D01*
G75*
G02*
X62494975Y-93276777I-159099J-159099D01*
G01*
X62176777Y-93594975D01*
G75*
G02*
X61858579Y-93594975I-159099J159099D01*
G01*
G37*
%TD.AperFunction*%
%TO.P,C7,1*%
%TO.N,VCC*%
%TA.AperFunction,SMDPad,CuDef*%
G36*
G01*
X60762563Y-94690991D02*
X60409009Y-94337437D01*
G75*
G02*
X60409009Y-94019239I159099J159099D01*
G01*
X60727207Y-93701041D01*
G75*
G02*
X61045405Y-93701041I159099J-159099D01*
G01*
X61398959Y-94054595D01*
G75*
G02*
X61398959Y-94372793I-159099J-159099D01*
G01*
X61080761Y-94690991D01*
G75*
G02*
X60762563Y-94690991I-159099J159099D01*
G01*
G37*
%TD.AperFunction*%
%TD*%
%TO.P,C6,2*%
%TO.N,GND*%
%TA.AperFunction,SMDPad,CuDef*%
G36*
G01*
X102873817Y-91597815D02*
X103356780Y-91727224D01*
G75*
G02*
X103515879Y-92002791I-58234J-217333D01*
G01*
X103399410Y-92437458D01*
G75*
G02*
X103123843Y-92596557I-217333J58234D01*
G01*
X102640880Y-92467148D01*
G75*
G02*
X102481781Y-92191581I58234J217333D01*
G01*
X102598250Y-91756914D01*
G75*
G02*
X102873817Y-91597815I217333J-58234D01*
G01*
G37*
%TD.AperFunction*%
%TO.P,C6,1*%
%TO.N,VCC*%
%TA.AperFunction,SMDPad,CuDef*%
G36*
G01*
X103274987Y-90100629D02*
X103757950Y-90230038D01*
G75*
G02*
X103917049Y-90505605I-58234J-217333D01*
G01*
X103800580Y-90940272D01*
G75*
G02*
X103525013Y-91099371I-217333J58234D01*
G01*
X103042050Y-90969962D01*
G75*
G02*
X102882951Y-90694395I58234J217333D01*
G01*
X102999420Y-90259728D01*
G75*
G02*
X103274987Y-90100629I217333J-58234D01*
G01*
G37*
%TD.AperFunction*%
%TD*%
%TO.P,C5,2*%
%TO.N,GND*%
%TA.AperFunction,SMDPad,CuDef*%
G36*
G01*
X94642050Y-95430038D02*
X95125013Y-95300629D01*
G75*
G02*
X95400580Y-95459728I58234J-217333D01*
G01*
X95517049Y-95894395D01*
G75*
G02*
X95357950Y-96169962I-217333J-58234D01*
G01*
X94874987Y-96299371D01*
G75*
G02*
X94599420Y-96140272I-58234J217333D01*
G01*
X94482951Y-95705605D01*
G75*
G02*
X94642050Y-95430038I217333J58234D01*
G01*
G37*
%TD.AperFunction*%
%TO.P,C5,1*%
%TO.N,VCC*%
%TA.AperFunction,SMDPad,CuDef*%
G36*
G01*
X94240880Y-93932852D02*
X94723843Y-93803443D01*
G75*
G02*
X94999410Y-93962542I58234J-217333D01*
G01*
X95115879Y-94397209D01*
G75*
G02*
X94956780Y-94672776I-217333J-58234D01*
G01*
X94473817Y-94802185D01*
G75*
G02*
X94198250Y-94643086I-58234J217333D01*
G01*
X94081781Y-94208419D01*
G75*
G02*
X94240880Y-93932852I217333J58234D01*
G01*
G37*
%TD.AperFunction*%
%TD*%
%TO.P,C4,2*%
%TO.N,GND*%
%TA.AperFunction,SMDPad,CuDef*%
G36*
G01*
X99998959Y-96993413D02*
X99645405Y-97346967D01*
G75*
G02*
X99327207Y-97346967I-159099J159099D01*
G01*
X99009009Y-97028769D01*
G75*
G02*
X99009009Y-96710571I159099J159099D01*
G01*
X99362563Y-96357017D01*
G75*
G02*
X99680761Y-96357017I159099J-159099D01*
G01*
X99998959Y-96675215D01*
G75*
G02*
X99998959Y-96993413I-159099J-159099D01*
G01*
G37*
%TD.AperFunction*%
%TO.P,C4,1*%
%TO.N,VCC*%
%TA.AperFunction,SMDPad,CuDef*%
G36*
G01*
X101094975Y-98089429D02*
X100741421Y-98442983D01*
G75*
G02*
X100423223Y-98442983I-159099J159099D01*
G01*
X100105025Y-98124785D01*
G75*
G02*
X100105025Y-97806587I159099J159099D01*
G01*
X100458579Y-97453033D01*
G75*
G02*
X100776777Y-97453033I159099J-159099D01*
G01*
X101094975Y-97771231D01*
G75*
G02*
X101094975Y-98089429I-159099J-159099D01*
G01*
G37*
%TD.AperFunction*%
%TD*%
%TO.P,C3,2*%
%TO.N,GND*%
%TA.AperFunction,SMDPad,CuDef*%
G36*
G01*
X98147815Y-56126183D02*
X98277224Y-55643220D01*
G75*
G02*
X98552791Y-55484121I217333J-58234D01*
G01*
X98987458Y-55600590D01*
G75*
G02*
X99146557Y-55876157I-58234J-217333D01*
G01*
X99017148Y-56359120D01*
G75*
G02*
X98741581Y-56518219I-217333J58234D01*
G01*
X98306914Y-56401750D01*
G75*
G02*
X98147815Y-56126183I58234J217333D01*
G01*
G37*
%TD.AperFunction*%
%TO.P,C3,1*%
%TO.N,VCC*%
%TA.AperFunction,SMDPad,CuDef*%
G36*
G01*
X96650629Y-55725013D02*
X96780038Y-55242050D01*
G75*
G02*
X97055605Y-55082951I217333J-58234D01*
G01*
X97490272Y-55199420D01*
G75*
G02*
X97649371Y-55474987I-58234J-217333D01*
G01*
X97519962Y-55957950D01*
G75*
G02*
X97244395Y-56117049I-217333J58234D01*
G01*
X96809728Y-56000580D01*
G75*
G02*
X96650629Y-55725013I58234J217333D01*
G01*
G37*
%TD.AperFunction*%
%TD*%
%TO.P,C2,2*%
%TO.N,GND*%
%TA.AperFunction,SMDPad,CuDef*%
G36*
G01*
X101978631Y-64157365D02*
X101849222Y-63674402D01*
G75*
G02*
X102008321Y-63398835I217333J58234D01*
G01*
X102442988Y-63282366D01*
G75*
G02*
X102718555Y-63441465I58234J-217333D01*
G01*
X102847964Y-63924428D01*
G75*
G02*
X102688865Y-64199995I-217333J-58234D01*
G01*
X102254198Y-64316464D01*
G75*
G02*
X101978631Y-64157365I-58234J217333D01*
G01*
G37*
%TD.AperFunction*%
%TO.P,C2,1*%
%TO.N,VCC*%
%TA.AperFunction,SMDPad,CuDef*%
G36*
G01*
X100481445Y-64558535D02*
X100352036Y-64075572D01*
G75*
G02*
X100511135Y-63800005I217333J58234D01*
G01*
X100945802Y-63683536D01*
G75*
G02*
X101221369Y-63842635I58234J-217333D01*
G01*
X101350778Y-64325598D01*
G75*
G02*
X101191679Y-64601165I-217333J-58234D01*
G01*
X100757012Y-64717634D01*
G75*
G02*
X100481445Y-64558535I-58234J217333D01*
G01*
G37*
%TD.AperFunction*%
%TD*%
%TO.P,C1,2*%
%TO.N,GND*%
%TA.AperFunction,SMDPad,CuDef*%
G36*
G01*
X103195405Y-58751041D02*
X103548959Y-59104595D01*
G75*
G02*
X103548959Y-59422793I-159099J-159099D01*
G01*
X103230761Y-59740991D01*
G75*
G02*
X102912563Y-59740991I-159099J159099D01*
G01*
X102559009Y-59387437D01*
G75*
G02*
X102559009Y-59069239I159099J159099D01*
G01*
X102877207Y-58751041D01*
G75*
G02*
X103195405Y-58751041I159099J-159099D01*
G01*
G37*
%TD.AperFunction*%
%TO.P,C1,1*%
%TO.N,VCC*%
%TA.AperFunction,SMDPad,CuDef*%
G36*
G01*
X104291421Y-57655025D02*
X104644975Y-58008579D01*
G75*
G02*
X104644975Y-58326777I-159099J-159099D01*
G01*
X104326777Y-58644975D01*
G75*
G02*
X104008579Y-58644975I-159099J159099D01*
G01*
X103655025Y-58291421D01*
G75*
G02*
X103655025Y-57973223I159099J159099D01*
G01*
X103973223Y-57655025D01*
G75*
G02*
X104291421Y-57655025I159099J-159099D01*
G01*
G37*
%TD.AperFunction*%
%TD*%
D11*
%TO.N,VCC*%
X105000000Y-60250000D03*
X100400000Y-93500000D03*
X65200000Y-93500000D03*
X59300000Y-91800000D03*
X98500000Y-99500000D03*
X99400000Y-53100000D03*
X105400000Y-64400000D03*
%TO.N,/HES_O_1*%
X97000000Y-53000000D03*
X83650004Y-47550004D03*
%TO.N,/HES_O_2*%
X84600000Y-49800000D03*
X102900004Y-61000000D03*
%TO.N,/HES_O_3*%
X83000000Y-49700000D03*
X94750000Y-54000000D03*
%TO.N,/HES_O_4*%
X105250000Y-92500000D03*
X83300000Y-51000000D03*
%TO.N,/HES_O_5*%
X81500000Y-51125000D03*
X94600000Y-97500000D03*
%TO.N,/HES_O_6*%
X102750000Y-88750000D03*
X82100000Y-52500000D03*
%TO.N,/HES_O_7*%
X65500000Y-98400000D03*
X80000929Y-52399989D03*
%TO.N,/HES_O_8*%
X60500000Y-88800000D03*
X80800000Y-54000000D03*
%TO.N,/HES_O_9*%
X78896573Y-54096573D03*
X71250000Y-95250000D03*
%TD*%
D12*
%TO.N,GND*%
X61164466Y-37810534D02*
X61310534Y-37810534D01*
D13*
X61200000Y-37900000D02*
X78389466Y-55089466D01*
D12*
%TO.N,VCC*%
X68235533Y-30739466D02*
X68239466Y-30739466D01*
X61020000Y-94280000D02*
X61020000Y-94284213D01*
X94939415Y-94101407D02*
X94939415Y-94060585D01*
X95458810Y-93541190D02*
X96263196Y-93541190D01*
X94939415Y-94060585D02*
X95458810Y-93541190D01*
X104114213Y-58150000D02*
X103028858Y-57064645D01*
X104150000Y-58150000D02*
X104114213Y-58150000D01*
X104150000Y-58150000D02*
X105250000Y-59250000D01*
X105250000Y-59250000D02*
X105250000Y-60000000D01*
X105250000Y-60000000D02*
X105000000Y-60250000D01*
X105000000Y-60250000D02*
X105000000Y-60250000D01*
X102710677Y-57064645D02*
X103028858Y-57064645D01*
X65258810Y-89008810D02*
X65258810Y-89888196D01*
X64799415Y-88549415D02*
X65258810Y-89008810D01*
X64688593Y-88549415D02*
X64799415Y-88549415D01*
X67973593Y-96825585D02*
X68174415Y-96825585D01*
X68370048Y-95351449D02*
X68851449Y-95351449D01*
X68370048Y-96629952D02*
X68370048Y-95351449D01*
X68174415Y-96825585D02*
X68370048Y-96629952D01*
X102879952Y-90379952D02*
X101701449Y-90379952D01*
X103181170Y-90792814D02*
X103181170Y-90681170D01*
X100639213Y-97700000D02*
X101968198Y-96371015D01*
X103181170Y-90681170D02*
X102879952Y-90379952D01*
X100600000Y-97700000D02*
X100639213Y-97700000D01*
X96416054Y-93213332D02*
X100113332Y-93213332D01*
X100113332Y-93213332D02*
X100400000Y-93500000D01*
X95988196Y-93641190D02*
X96416054Y-93213332D01*
X101776449Y-92023551D02*
X101776449Y-90179952D01*
X100400000Y-93400000D02*
X101776449Y-92023551D01*
X100400000Y-93500000D02*
X100400000Y-93400000D01*
X100400000Y-93500000D02*
X100400000Y-93500000D01*
X61020000Y-94284213D02*
X61517893Y-94782107D01*
X61517893Y-94782107D02*
X62096142Y-95360355D01*
X65200000Y-93500000D02*
X66000000Y-92700000D01*
X66000000Y-90529386D02*
X65158810Y-89688196D01*
X66000000Y-92700000D02*
X66000000Y-90529386D01*
X65200000Y-93500000D02*
X65200000Y-93900000D01*
X66776449Y-95476449D02*
X68620048Y-95476449D01*
X65200000Y-93900000D02*
X66776449Y-95476449D01*
X65200000Y-93500000D02*
X65200000Y-93500000D01*
X60903984Y-94196016D02*
X59300000Y-92592032D01*
X59300000Y-92592032D02*
X59300000Y-91800000D01*
X59300000Y-91800000D02*
X59300000Y-91800000D01*
X100600000Y-97948008D02*
X99048008Y-99500000D01*
X99048008Y-99500000D02*
X98500000Y-99500000D01*
X98500000Y-99500000D02*
X98500000Y-99500000D01*
D13*
X98300000Y-52000000D02*
X99400000Y-53100000D01*
X68239466Y-30739466D02*
X85500000Y-48000000D01*
X85500000Y-48000000D02*
X89500000Y-52000000D01*
D12*
X96729952Y-56020048D02*
X97150000Y-55600000D01*
X96729952Y-57073551D02*
X96729952Y-56020048D01*
X105400000Y-64400000D02*
X105400000Y-64400000D01*
X104800000Y-65000000D02*
X105400000Y-64400000D01*
X101650822Y-65000000D02*
X104800000Y-65000000D01*
X100851407Y-64200585D02*
X101650822Y-65000000D01*
X99941190Y-63290368D02*
X100851407Y-64200585D01*
X99941190Y-62811804D02*
X99941190Y-63290368D01*
X97150000Y-55108245D02*
X97150000Y-55600000D01*
X95400000Y-52000000D02*
X95400000Y-53358245D01*
D13*
X89500000Y-52000000D02*
X95400000Y-52000000D01*
D12*
X95400000Y-53358245D02*
X97150000Y-55108245D01*
D13*
X95400000Y-52000000D02*
X98300000Y-52000000D01*
D12*
%TO.N,/HES_O_1*%
X67528427Y-31446573D02*
X67946573Y-31446573D01*
D13*
X67900000Y-31800000D02*
X83650004Y-47550004D01*
D12*
X97000000Y-53000000D02*
X99721142Y-55721142D01*
X99721142Y-55721142D02*
X101685355Y-55721142D01*
%TO.N,/HES_O_2*%
X66821320Y-32153680D02*
X67280940Y-32153680D01*
D13*
X83719060Y-49019060D02*
X83719060Y-49019060D01*
X84500000Y-49800000D02*
X84600000Y-49800000D01*
X67000000Y-32300000D02*
X84500000Y-49800000D01*
D12*
X101726449Y-62020048D02*
X101879956Y-62020048D01*
X101879956Y-62020048D02*
X102900004Y-61000000D01*
%TO.N,/HES_O_3*%
X66114213Y-32860787D02*
X66360787Y-32860787D01*
D13*
X66100000Y-32900000D02*
X83000000Y-49700000D01*
X83000000Y-49700000D02*
X83000000Y-49700000D01*
D12*
X94750000Y-57420614D02*
X96238196Y-58908810D01*
X94750000Y-54000000D02*
X94750000Y-57420614D01*
%TO.N,/HES_O_4*%
X65407106Y-33567893D02*
X65567893Y-33567893D01*
D13*
X82432107Y-50632107D02*
X82432107Y-50632107D01*
D12*
X103028858Y-95310355D02*
X105339213Y-93000000D01*
X105339213Y-92589213D02*
X105250000Y-92500000D01*
X105339213Y-93000000D02*
X105339213Y-92589213D01*
D13*
X82800000Y-51000000D02*
X83300000Y-51000000D01*
X65500000Y-33700000D02*
X82800000Y-51000000D01*
D12*
%TO.N,/HES_O_5*%
X64700000Y-34275000D02*
X64775000Y-34275000D01*
D13*
X64775000Y-34400000D02*
X81500000Y-51125000D01*
X81500000Y-51125000D02*
X81500000Y-51125000D01*
D12*
X96754952Y-95910733D02*
X96754952Y-95376449D01*
X95165685Y-97500000D02*
X96754952Y-95910733D01*
X94600000Y-97500000D02*
X95165685Y-97500000D01*
%TO.N,/HES_O_6*%
X63992893Y-34982107D02*
X63992893Y-34992893D01*
D13*
X81000000Y-52000000D02*
X81000000Y-52000000D01*
D12*
X101004386Y-88750000D02*
X102750000Y-88750000D01*
X99866190Y-89888196D02*
X101004386Y-88750000D01*
D13*
X81500000Y-52500000D02*
X82100000Y-52500000D01*
X63992893Y-34992893D02*
X81500000Y-52500000D01*
D12*
%TO.N,/HES_O_7*%
X63285786Y-35689214D02*
X63285786Y-35785786D01*
D13*
X80000000Y-52414214D02*
X80000000Y-52414214D01*
D12*
X65500000Y-98400000D02*
X64900000Y-98400000D01*
X63439645Y-96939645D02*
X63439645Y-96703858D01*
X64900000Y-98400000D02*
X63439645Y-96939645D01*
D13*
X79985775Y-52399989D02*
X80000929Y-52399989D01*
X63285786Y-35700000D02*
X79985775Y-52399989D01*
D12*
%TO.N,/HES_O_8*%
X62578679Y-36396320D02*
X62578679Y-36578679D01*
D13*
X79521321Y-53321321D02*
X79521321Y-53321321D01*
D12*
X62079952Y-90379952D02*
X63423551Y-90379952D01*
X60500000Y-88800000D02*
X62079952Y-90379952D01*
D13*
X62600000Y-36400000D02*
X80200000Y-54000000D01*
X80200000Y-54000000D02*
X80800000Y-54000000D01*
D12*
%TO.N,/HES_O_9*%
X61871572Y-37103427D02*
X62103427Y-37103427D01*
D13*
X62000000Y-37200000D02*
X78896573Y-54096573D01*
X78896573Y-54096573D02*
X78896573Y-54096573D01*
D12*
X70595614Y-95250000D02*
X68861804Y-93516190D01*
X71250000Y-95250000D02*
X70595614Y-95250000D01*
%TD*%
D14*
%TO.N,GND*%
X61979001Y-38572846D02*
X62075692Y-38652198D01*
X62116213Y-38673858D01*
X77944142Y-54501787D01*
X77979368Y-54586829D01*
X78092636Y-54756347D01*
X78236799Y-54900510D01*
X78406317Y-55013778D01*
X78594675Y-55091799D01*
X78794634Y-55131573D01*
X78998512Y-55131573D01*
X79198471Y-55091799D01*
X79386829Y-55013778D01*
X79556347Y-54900510D01*
X79658970Y-54797887D01*
X79664071Y-54802073D01*
X79816697Y-54883653D01*
X79830846Y-54891216D01*
X80011807Y-54946110D01*
X80152838Y-54960000D01*
X80152840Y-54960000D01*
X80200000Y-54964645D01*
X80247160Y-54960000D01*
X80413060Y-54960000D01*
X80498102Y-54995226D01*
X80698061Y-55035000D01*
X80901939Y-55035000D01*
X81101898Y-54995226D01*
X81290256Y-54917205D01*
X81459774Y-54803937D01*
X81603937Y-54659774D01*
X81717205Y-54490256D01*
X81795226Y-54301898D01*
X81835000Y-54101939D01*
X81835000Y-53898061D01*
X81795226Y-53698102D01*
X81717205Y-53509744D01*
X81683967Y-53460000D01*
X81713060Y-53460000D01*
X81798102Y-53495226D01*
X81998061Y-53535000D01*
X82201939Y-53535000D01*
X82401898Y-53495226D01*
X82590256Y-53417205D01*
X82759774Y-53303937D01*
X82903937Y-53159774D01*
X83017205Y-52990256D01*
X83095226Y-52801898D01*
X83135000Y-52601939D01*
X83135000Y-52398061D01*
X83095226Y-52198102D01*
X83017205Y-52009744D01*
X83008946Y-51997383D01*
X83198061Y-52035000D01*
X83401939Y-52035000D01*
X83601898Y-51995226D01*
X83790256Y-51917205D01*
X83959774Y-51803937D01*
X84103937Y-51659774D01*
X84217205Y-51490256D01*
X84295226Y-51301898D01*
X84335000Y-51101939D01*
X84335000Y-50898061D01*
X84315222Y-50798631D01*
X84498061Y-50835000D01*
X84701939Y-50835000D01*
X84901898Y-50795226D01*
X85090256Y-50717205D01*
X85259774Y-50603937D01*
X85403937Y-50459774D01*
X85517205Y-50290256D01*
X85595226Y-50101898D01*
X85635000Y-49901939D01*
X85635000Y-49698061D01*
X85595226Y-49498102D01*
X85563242Y-49420886D01*
X88787828Y-52645473D01*
X88817893Y-52682107D01*
X88854525Y-52712170D01*
X88964071Y-52802073D01*
X89022163Y-52833124D01*
X89130846Y-52891216D01*
X89311807Y-52946110D01*
X89452838Y-52960000D01*
X89452847Y-52960000D01*
X89499999Y-52964644D01*
X89547151Y-52960000D01*
X94640001Y-52960000D01*
X94640001Y-52966603D01*
X94448102Y-53004774D01*
X94259744Y-53082795D01*
X94090226Y-53196063D01*
X93946063Y-53340226D01*
X93832795Y-53509744D01*
X93754774Y-53698102D01*
X93715000Y-53898061D01*
X93715000Y-54101939D01*
X93754774Y-54301898D01*
X93832795Y-54490256D01*
X93946063Y-54659774D01*
X93990000Y-54703711D01*
X93990001Y-57383282D01*
X93986324Y-57420614D01*
X93990001Y-57457947D01*
X94000998Y-57569600D01*
X94005076Y-57583043D01*
X94044454Y-57712860D01*
X94115026Y-57844890D01*
X94186201Y-57931616D01*
X94210000Y-57960615D01*
X94238998Y-57984413D01*
X94925488Y-58670904D01*
X94833672Y-59013567D01*
X94813296Y-59136980D01*
X94817389Y-59261997D01*
X94845792Y-59383814D01*
X94897415Y-59497748D01*
X94970274Y-59599422D01*
X95061568Y-59684929D01*
X95167790Y-59750981D01*
X95284857Y-59795042D01*
X96154190Y-60027979D01*
X96277603Y-60048355D01*
X96402620Y-60044262D01*
X96524437Y-60015859D01*
X96638371Y-59964235D01*
X96740045Y-59891377D01*
X96825552Y-59800082D01*
X96891604Y-59693861D01*
X96935665Y-59576794D01*
X97068156Y-59082331D01*
X97075145Y-59097757D01*
X97148004Y-59199430D01*
X97239298Y-59284938D01*
X97345519Y-59350990D01*
X97462587Y-59395051D01*
X97622035Y-59434595D01*
X97702597Y-59388082D01*
X98061808Y-59388082D01*
X98174062Y-59582510D01*
X98331920Y-59627988D01*
X98455333Y-59648364D01*
X98580350Y-59644272D01*
X98702167Y-59615867D01*
X98816101Y-59564244D01*
X98917775Y-59491386D01*
X99003282Y-59400092D01*
X99069335Y-59293870D01*
X99093998Y-59228338D01*
X101761838Y-59228338D01*
X101774099Y-59352820D01*
X101810408Y-59472518D01*
X101869372Y-59582832D01*
X101948725Y-59679523D01*
X102084717Y-59811171D01*
X102309224Y-59811171D01*
X102874379Y-59246016D01*
X102291546Y-58663183D01*
X102067040Y-58663183D01*
X101948725Y-58777153D01*
X101869372Y-58873844D01*
X101810408Y-58984159D01*
X101774099Y-59103857D01*
X101761838Y-59228338D01*
X99093998Y-59228338D01*
X99113395Y-59176803D01*
X99139998Y-59065651D01*
X99027745Y-58871223D01*
X98255729Y-58664362D01*
X98061808Y-59388082D01*
X97702597Y-59388082D01*
X97816463Y-59322341D01*
X98010383Y-58598622D01*
X97340088Y-58419016D01*
X98321469Y-58419016D01*
X99093485Y-58625878D01*
X99287913Y-58513624D01*
X99320450Y-58404062D01*
X99329068Y-58351867D01*
X100527738Y-58351867D01*
X100527738Y-58576374D01*
X100606353Y-58659333D01*
X100703044Y-58738686D01*
X100813358Y-58797650D01*
X100933056Y-58833959D01*
X101057538Y-58846220D01*
X101182019Y-58833959D01*
X101301717Y-58797650D01*
X101412032Y-58738686D01*
X101508723Y-58659333D01*
X101622693Y-58541018D01*
X101622693Y-58316512D01*
X101092893Y-57786712D01*
X100527738Y-58351867D01*
X99329068Y-58351867D01*
X99340827Y-58280649D01*
X99336734Y-58155632D01*
X99308329Y-58033815D01*
X99256707Y-57919881D01*
X99183848Y-57818208D01*
X99092554Y-57732700D01*
X98986333Y-57666648D01*
X98922072Y-57642462D01*
X99853780Y-57642462D01*
X99866041Y-57766944D01*
X99902350Y-57886642D01*
X99961314Y-57996956D01*
X100040667Y-58093647D01*
X100123626Y-58172262D01*
X100348133Y-58172262D01*
X100913288Y-57607107D01*
X100383488Y-57077307D01*
X100158982Y-57077307D01*
X100040667Y-57191277D01*
X99961314Y-57287968D01*
X99902350Y-57398283D01*
X99866041Y-57517981D01*
X99853780Y-57642462D01*
X98922072Y-57642462D01*
X98869265Y-57622587D01*
X98709817Y-57583043D01*
X98515389Y-57695297D01*
X98321469Y-58419016D01*
X97340088Y-58419016D01*
X97238367Y-58391760D01*
X97134746Y-58451586D01*
X97130600Y-58433806D01*
X97078977Y-58319872D01*
X97006118Y-58218198D01*
X96975985Y-58189975D01*
X97016193Y-58180600D01*
X97130127Y-58128976D01*
X97231801Y-58056118D01*
X97244281Y-58042793D01*
X97304107Y-58146415D01*
X98076123Y-58353276D01*
X98270044Y-57629556D01*
X98157790Y-57435128D01*
X97999932Y-57389650D01*
X97876519Y-57369274D01*
X97751502Y-57373366D01*
X97629685Y-57401771D01*
X97515751Y-57453394D01*
X97501985Y-57463259D01*
X97634476Y-56968794D01*
X97654852Y-56845381D01*
X97653535Y-56805140D01*
X97701146Y-56849733D01*
X97807368Y-56915786D01*
X97924435Y-56959846D01*
X98083884Y-56999390D01*
X98278312Y-56887137D01*
X98491643Y-56090973D01*
X98472324Y-56085797D01*
X98538065Y-55840451D01*
X98557383Y-55845627D01*
X98562559Y-55826308D01*
X98807905Y-55892048D01*
X98802729Y-55911367D01*
X98822048Y-55916543D01*
X98756307Y-56161889D01*
X98736989Y-56156713D01*
X98523657Y-56952877D01*
X98635910Y-57147305D01*
X98793768Y-57192784D01*
X98917182Y-57213160D01*
X99042199Y-57209067D01*
X99164015Y-57180663D01*
X99277950Y-57129040D01*
X99379623Y-57056181D01*
X99465130Y-56964887D01*
X99531183Y-56858666D01*
X99575244Y-56741599D01*
X99621258Y-56558002D01*
X99570189Y-56469548D01*
X99572156Y-56470145D01*
X99683809Y-56481142D01*
X99683819Y-56481142D01*
X99721142Y-56484818D01*
X99758465Y-56481142D01*
X100766913Y-56481142D01*
X100677063Y-56554881D01*
X100563093Y-56673196D01*
X100563093Y-56897702D01*
X101092893Y-57427502D01*
X101658048Y-56862347D01*
X101658048Y-56742696D01*
X101675518Y-56747995D01*
X101800000Y-56760255D01*
X101924482Y-56747995D01*
X101963989Y-56736011D01*
X101952005Y-56775518D01*
X101939745Y-56900000D01*
X101951480Y-57019155D01*
X101949235Y-57041952D01*
X101837653Y-57041952D01*
X101272498Y-57607107D01*
X101802298Y-58136907D01*
X102026804Y-58136907D01*
X102145119Y-58022937D01*
X102224472Y-57926246D01*
X102283436Y-57815931D01*
X102314209Y-57714483D01*
X102418430Y-57770191D01*
X102561691Y-57813648D01*
X102592089Y-57816642D01*
X102692318Y-57916871D01*
X102789009Y-57996223D01*
X102797558Y-58000793D01*
X102792127Y-58002440D01*
X102681812Y-58061404D01*
X102585121Y-58140757D01*
X102471151Y-58259072D01*
X102471151Y-58483578D01*
X103053984Y-59066411D01*
X103068127Y-59052269D01*
X103247732Y-59231874D01*
X103233589Y-59246016D01*
X103816422Y-59828849D01*
X104040928Y-59828849D01*
X104062962Y-59807624D01*
X104004774Y-59948102D01*
X103965000Y-60148061D01*
X103965000Y-60351939D01*
X104004774Y-60551898D01*
X104082795Y-60740256D01*
X104196063Y-60909774D01*
X104340226Y-61053937D01*
X104509744Y-61167205D01*
X104698102Y-61245226D01*
X104898061Y-61285000D01*
X105101939Y-61285000D01*
X105301898Y-61245226D01*
X105490256Y-61167205D01*
X105659774Y-61053937D01*
X105803937Y-60909774D01*
X105917205Y-60740256D01*
X105995226Y-60551898D01*
X106035000Y-60351939D01*
X106035000Y-60148061D01*
X106010985Y-60027327D01*
X106013676Y-60000001D01*
X106010000Y-59962678D01*
X106010000Y-59287323D01*
X106013676Y-59250000D01*
X106010000Y-59212677D01*
X106010000Y-59212667D01*
X105999003Y-59101014D01*
X105955546Y-58957753D01*
X105909294Y-58871223D01*
X105884974Y-58825723D01*
X105813799Y-58738997D01*
X105790001Y-58709999D01*
X105761004Y-58686202D01*
X105339402Y-58264600D01*
X105348948Y-58167678D01*
X105332364Y-57999301D01*
X105283251Y-57837395D01*
X105203494Y-57688181D01*
X105096160Y-57557394D01*
X104742606Y-57203840D01*
X104611819Y-57096506D01*
X104462605Y-57016749D01*
X104393011Y-56995638D01*
X104405711Y-56953772D01*
X104417971Y-56829290D01*
X104412398Y-56772705D01*
X105271616Y-57757094D01*
X106532077Y-59428816D01*
X107669803Y-61186402D01*
X108678948Y-63020823D01*
X109554358Y-64922710D01*
X110291548Y-66882321D01*
X110886742Y-68889618D01*
X111336894Y-70934320D01*
X111639704Y-73005990D01*
X111793622Y-75094006D01*
X111797857Y-77187665D01*
X111652389Y-79276300D01*
X111357963Y-81349163D01*
X110916084Y-83395687D01*
X110329015Y-85405376D01*
X109599764Y-87367939D01*
X108732059Y-89273348D01*
X107730345Y-91111836D01*
X106599738Y-92874012D01*
X105346039Y-94550836D01*
X104512366Y-95513796D01*
X104505711Y-95446228D01*
X104469401Y-95326530D01*
X104410436Y-95216216D01*
X104331084Y-95119525D01*
X104312787Y-95101228D01*
X105850222Y-93563794D01*
X105879214Y-93540001D01*
X105903008Y-93511008D01*
X105903012Y-93511004D01*
X105974186Y-93424277D01*
X105974187Y-93424276D01*
X106044759Y-93292247D01*
X106088216Y-93148986D01*
X106092896Y-93101467D01*
X106167205Y-92990256D01*
X106245226Y-92801898D01*
X106285000Y-92601939D01*
X106285000Y-92398061D01*
X106245226Y-92198102D01*
X106167205Y-92009744D01*
X106053937Y-91840226D01*
X105909774Y-91696063D01*
X105740256Y-91582795D01*
X105551898Y-91504774D01*
X105351939Y-91465000D01*
X105148061Y-91465000D01*
X104948102Y-91504774D01*
X104759744Y-91582795D01*
X104590226Y-91696063D01*
X104446063Y-91840226D01*
X104332795Y-92009744D01*
X104254774Y-92198102D01*
X104215000Y-92398061D01*
X104215000Y-92601939D01*
X104254774Y-92801898D01*
X104315619Y-92948791D01*
X102465059Y-94799353D01*
X102430732Y-94841180D01*
X102432006Y-94828248D01*
X102419745Y-94703767D01*
X102383436Y-94584069D01*
X102324472Y-94473754D01*
X102245119Y-94377063D01*
X102126804Y-94263093D01*
X101902298Y-94263093D01*
X101372498Y-94792893D01*
X101937653Y-95358048D01*
X102057304Y-95358048D01*
X102052005Y-95375518D01*
X102039745Y-95500000D01*
X102051121Y-95615505D01*
X101968198Y-95607338D01*
X101819212Y-95622012D01*
X101758048Y-95640566D01*
X101758048Y-95537653D01*
X101192893Y-94972498D01*
X100663093Y-95502298D01*
X100663093Y-95726804D01*
X100777063Y-95845119D01*
X100873754Y-95924472D01*
X100984069Y-95983436D01*
X101103767Y-96019745D01*
X101228248Y-96032006D01*
X101232859Y-96031552D01*
X100722034Y-96542378D01*
X100688596Y-96479820D01*
X100609243Y-96383129D01*
X100490928Y-96269159D01*
X100266422Y-96269159D01*
X99683589Y-96851992D01*
X99697732Y-96866135D01*
X99518127Y-97045740D01*
X99503984Y-97031597D01*
X98921151Y-97614430D01*
X98921151Y-97838936D01*
X99035121Y-97957251D01*
X99131812Y-98036604D01*
X99242127Y-98095568D01*
X99346100Y-98127107D01*
X98919656Y-98553551D01*
X98801898Y-98504774D01*
X98601939Y-98465000D01*
X98398061Y-98465000D01*
X98198102Y-98504774D01*
X98009744Y-98582795D01*
X97840226Y-98696063D01*
X97696063Y-98840226D01*
X97582795Y-99009744D01*
X97504774Y-99198102D01*
X97465000Y-99398061D01*
X97465000Y-99601939D01*
X97504774Y-99801898D01*
X97582795Y-99990256D01*
X97696063Y-100159774D01*
X97840226Y-100303937D01*
X98009744Y-100417205D01*
X98198102Y-100495226D01*
X98398061Y-100535000D01*
X98601939Y-100535000D01*
X98801898Y-100495226D01*
X98911407Y-100449866D01*
X97475829Y-101372053D01*
X95637880Y-102374797D01*
X93732959Y-103243558D01*
X91770800Y-103973898D01*
X89761433Y-104562084D01*
X87715162Y-105005098D01*
X85642442Y-105300677D01*
X83553914Y-105447304D01*
X81460238Y-105444231D01*
X79372141Y-105291474D01*
X77300303Y-104989812D01*
X75255337Y-104540792D01*
X73247716Y-103946714D01*
X71287699Y-103210612D01*
X69385330Y-102336260D01*
X67550346Y-101328132D01*
X65792145Y-100191393D01*
X64119702Y-98931844D01*
X63180733Y-98113189D01*
X63229290Y-98117971D01*
X63353772Y-98105711D01*
X63473470Y-98069401D01*
X63487240Y-98062041D01*
X64336201Y-98911003D01*
X64359999Y-98940001D01*
X64475724Y-99034974D01*
X64607753Y-99105546D01*
X64751014Y-99149003D01*
X64789037Y-99152748D01*
X64840226Y-99203937D01*
X65009744Y-99317205D01*
X65198102Y-99395226D01*
X65398061Y-99435000D01*
X65601939Y-99435000D01*
X65801898Y-99395226D01*
X65990256Y-99317205D01*
X66159774Y-99203937D01*
X66303937Y-99059774D01*
X66417205Y-98890256D01*
X66495226Y-98701898D01*
X66535000Y-98501939D01*
X66535000Y-98298061D01*
X66495226Y-98098102D01*
X66417205Y-97909744D01*
X66303937Y-97740226D01*
X66159774Y-97596063D01*
X66081461Y-97543736D01*
X66182533Y-97485382D01*
X66395864Y-96689218D01*
X65623848Y-96482356D01*
X65429420Y-96594610D01*
X65377471Y-96776616D01*
X65357095Y-96900030D01*
X65361188Y-97025047D01*
X65389592Y-97146863D01*
X65441215Y-97260797D01*
X65514073Y-97362471D01*
X65516773Y-97365000D01*
X65398061Y-97365000D01*
X65198102Y-97404774D01*
X65043581Y-97468779D01*
X64496096Y-96921295D01*
X64503758Y-96843503D01*
X64491498Y-96719021D01*
X64455188Y-96599323D01*
X64396223Y-96489009D01*
X64316871Y-96392318D01*
X63954899Y-96030346D01*
X63971752Y-96032006D01*
X64096233Y-96019745D01*
X64215931Y-95983436D01*
X64326246Y-95924472D01*
X64422937Y-95845119D01*
X64536907Y-95726804D01*
X64536907Y-95502298D01*
X64007107Y-94972498D01*
X63441952Y-95537653D01*
X63441952Y-95657304D01*
X63424482Y-95652005D01*
X63300000Y-95639745D01*
X63175518Y-95652005D01*
X63136011Y-95663989D01*
X63147995Y-95624482D01*
X63160255Y-95500000D01*
X63147995Y-95375518D01*
X63142696Y-95358048D01*
X63262347Y-95358048D01*
X63827502Y-94792893D01*
X63297702Y-94263093D01*
X63073196Y-94263093D01*
X62954881Y-94377063D01*
X62875528Y-94473754D01*
X62816564Y-94584069D01*
X62780255Y-94703767D01*
X62767994Y-94828248D01*
X62769654Y-94845101D01*
X62407682Y-94483129D01*
X62310991Y-94403777D01*
X62221351Y-94355863D01*
X62261857Y-94343576D01*
X62372172Y-94284612D01*
X62468863Y-94205259D01*
X62582833Y-94086944D01*
X62582833Y-93862438D01*
X62000000Y-93279605D01*
X61985858Y-93293748D01*
X61806253Y-93114143D01*
X61820395Y-93100000D01*
X62179605Y-93100000D01*
X62762438Y-93682833D01*
X62986944Y-93682833D01*
X63105259Y-93568863D01*
X63184612Y-93472172D01*
X63243576Y-93361857D01*
X63279885Y-93242159D01*
X63292146Y-93117678D01*
X63279885Y-92993196D01*
X63243576Y-92873498D01*
X63184612Y-92763184D01*
X63105259Y-92666493D01*
X62969267Y-92534845D01*
X62744760Y-92534845D01*
X62179605Y-93100000D01*
X61820395Y-93100000D01*
X61237562Y-92517167D01*
X61013056Y-92517167D01*
X60894741Y-92631137D01*
X60815388Y-92727828D01*
X60756424Y-92838143D01*
X60724885Y-92942116D01*
X60159455Y-92376686D01*
X60217205Y-92290256D01*
X60290604Y-92113056D01*
X61417167Y-92113056D01*
X61417167Y-92337562D01*
X62000000Y-92920395D01*
X62565155Y-92355240D01*
X62565155Y-92130733D01*
X62433507Y-91994741D01*
X62336816Y-91915388D01*
X62226502Y-91856424D01*
X62106804Y-91820115D01*
X61982322Y-91807854D01*
X61857841Y-91820115D01*
X61738143Y-91856424D01*
X61627828Y-91915388D01*
X61531137Y-91994741D01*
X61417167Y-92113056D01*
X60290604Y-92113056D01*
X60295226Y-92101898D01*
X60335000Y-91901939D01*
X60335000Y-91698061D01*
X60295226Y-91498102D01*
X60217205Y-91309744D01*
X60103937Y-91140226D01*
X59959774Y-90996063D01*
X59790256Y-90882795D01*
X59601898Y-90804774D01*
X59401939Y-90765000D01*
X59198061Y-90765000D01*
X58998102Y-90804774D01*
X58809744Y-90882795D01*
X58640226Y-90996063D01*
X58496063Y-91140226D01*
X58382795Y-91309744D01*
X58304774Y-91498102D01*
X58265000Y-91698061D01*
X58265000Y-91901939D01*
X58304774Y-92101898D01*
X58382795Y-92290256D01*
X58496063Y-92459774D01*
X58540000Y-92503711D01*
X58540000Y-92554710D01*
X58536324Y-92592032D01*
X58540000Y-92629354D01*
X58540000Y-92629364D01*
X58550997Y-92741017D01*
X58589144Y-92866774D01*
X58594454Y-92884278D01*
X58665026Y-93016308D01*
X58694525Y-93052252D01*
X58759999Y-93132033D01*
X58789003Y-93155836D01*
X59714582Y-94081416D01*
X59705036Y-94178338D01*
X59721620Y-94346715D01*
X59770733Y-94508621D01*
X59850490Y-94657835D01*
X59861905Y-94671744D01*
X59700184Y-94483832D01*
X58451418Y-92803342D01*
X57325995Y-91037864D01*
X56329676Y-89196431D01*
X55467572Y-87288495D01*
X54744081Y-85323785D01*
X54162916Y-83312388D01*
X53727046Y-81264576D01*
X53438708Y-79190864D01*
X53298872Y-77094335D01*
X53296416Y-76935000D01*
X61841558Y-76935000D01*
X61925681Y-78332724D01*
X61928090Y-78355670D01*
X61929901Y-78378704D01*
X61932510Y-78397768D01*
X62196919Y-80157665D01*
X62201361Y-80180318D01*
X62205210Y-80203087D01*
X62209503Y-80221844D01*
X62629308Y-81951269D01*
X62635744Y-81973429D01*
X62641604Y-81995775D01*
X62647549Y-82014076D01*
X63219428Y-83699336D01*
X63227812Y-83720846D01*
X63235632Y-83742573D01*
X63243179Y-83760273D01*
X63962605Y-85388025D01*
X63972863Y-85408695D01*
X63982588Y-85429651D01*
X63991679Y-85446609D01*
X64852954Y-87003963D01*
X64865009Y-87023639D01*
X64876558Y-87043648D01*
X64887121Y-87059731D01*
X64988222Y-87209371D01*
X64930054Y-87183015D01*
X64765282Y-87144596D01*
X64596181Y-87139060D01*
X64429249Y-87166621D01*
X63994582Y-87283090D01*
X63836236Y-87342687D01*
X63692558Y-87432031D01*
X63571673Y-87545252D01*
X63519643Y-87521677D01*
X63397827Y-87493273D01*
X63272810Y-87489180D01*
X63149396Y-87509556D01*
X62991538Y-87555035D01*
X62879285Y-87749463D01*
X63092617Y-88545627D01*
X63111935Y-88540451D01*
X63177676Y-88785797D01*
X63158357Y-88790973D01*
X63163533Y-88810291D01*
X62918187Y-88876032D01*
X62913011Y-88856713D01*
X62140995Y-89063574D01*
X62030229Y-89255427D01*
X61535000Y-88760199D01*
X61535000Y-88698061D01*
X61495226Y-88498102D01*
X61454821Y-88400555D01*
X61808502Y-88400555D01*
X61828878Y-88523969D01*
X61880827Y-88705975D01*
X62075255Y-88818229D01*
X62847271Y-88611367D01*
X62633940Y-87815203D01*
X62439512Y-87702950D01*
X62280063Y-87742494D01*
X62162996Y-87786554D01*
X62056774Y-87852607D01*
X61965480Y-87938114D01*
X61892622Y-88039788D01*
X61840999Y-88153722D01*
X61812595Y-88275538D01*
X61808502Y-88400555D01*
X61454821Y-88400555D01*
X61417205Y-88309744D01*
X61303937Y-88140226D01*
X61159774Y-87996063D01*
X60990256Y-87882795D01*
X60801898Y-87804774D01*
X60601939Y-87765000D01*
X60398061Y-87765000D01*
X60198102Y-87804774D01*
X60009744Y-87882795D01*
X59840226Y-87996063D01*
X59696063Y-88140226D01*
X59582795Y-88309744D01*
X59504774Y-88498102D01*
X59465000Y-88698061D01*
X59465000Y-88901939D01*
X59504774Y-89101898D01*
X59582795Y-89290256D01*
X59696063Y-89459774D01*
X59840226Y-89603937D01*
X60009744Y-89717205D01*
X60198102Y-89795226D01*
X60398061Y-89835000D01*
X60460199Y-89835000D01*
X61516152Y-90890954D01*
X61539951Y-90919953D01*
X61621641Y-90986994D01*
X61655676Y-91014926D01*
X61787705Y-91085498D01*
X61930966Y-91128955D01*
X62079952Y-91143629D01*
X62117285Y-91139952D01*
X62578689Y-91139952D01*
X62632939Y-91197874D01*
X62734613Y-91270732D01*
X62848547Y-91322356D01*
X62970364Y-91350759D01*
X63095381Y-91354852D01*
X63218794Y-91334476D01*
X63713259Y-91201985D01*
X63703394Y-91215751D01*
X63651771Y-91329685D01*
X63623366Y-91451502D01*
X63619274Y-91576519D01*
X63639650Y-91699932D01*
X63685128Y-91857790D01*
X63879556Y-91970044D01*
X64603276Y-91776123D01*
X64396415Y-91004107D01*
X64292793Y-90944281D01*
X64306118Y-90931801D01*
X64378977Y-90830127D01*
X64430600Y-90716193D01*
X64439975Y-90675985D01*
X64468198Y-90706118D01*
X64569872Y-90778976D01*
X64683806Y-90830600D01*
X64701586Y-90834746D01*
X64641760Y-90938367D01*
X64848622Y-91710383D01*
X64867940Y-91705207D01*
X64933681Y-91950553D01*
X64914362Y-91955729D01*
X64919538Y-91975047D01*
X64674192Y-92040788D01*
X64669016Y-92021469D01*
X63945297Y-92215389D01*
X63833043Y-92409817D01*
X63872587Y-92569265D01*
X63916648Y-92686333D01*
X63982700Y-92792554D01*
X64068208Y-92883848D01*
X64169881Y-92956707D01*
X64283758Y-93008303D01*
X64282795Y-93009744D01*
X64204774Y-93198102D01*
X64165000Y-93398061D01*
X64165000Y-93565850D01*
X64042462Y-93553780D01*
X63917981Y-93566041D01*
X63798283Y-93602350D01*
X63687968Y-93661314D01*
X63591277Y-93740667D01*
X63477307Y-93858982D01*
X63477307Y-94083488D01*
X64007107Y-94613288D01*
X64021250Y-94599146D01*
X64200855Y-94778751D01*
X64186712Y-94792893D01*
X64716512Y-95322693D01*
X64941018Y-95322693D01*
X65059333Y-95208723D01*
X65138686Y-95112032D01*
X65197650Y-95001717D01*
X65204461Y-94979263D01*
X65795094Y-95569896D01*
X65733463Y-95635698D01*
X65667410Y-95741919D01*
X65623349Y-95858986D01*
X65577335Y-96042583D01*
X65689588Y-96237011D01*
X66461604Y-96443872D01*
X66466780Y-96424553D01*
X66712126Y-96490294D01*
X66706950Y-96509612D01*
X66726269Y-96514788D01*
X66660528Y-96760134D01*
X66641210Y-96754958D01*
X66427878Y-97551122D01*
X66540131Y-97745550D01*
X66697989Y-97791029D01*
X66821403Y-97811405D01*
X66946420Y-97807312D01*
X67068236Y-97778908D01*
X67120267Y-97755333D01*
X67241150Y-97868553D01*
X67384827Y-97957897D01*
X67543175Y-98017495D01*
X67977842Y-98133964D01*
X68144775Y-98161525D01*
X68313876Y-98155989D01*
X68478648Y-98117570D01*
X68632759Y-98047743D01*
X68770286Y-97949192D01*
X68885944Y-97825705D01*
X68975288Y-97682027D01*
X69034886Y-97523680D01*
X69164295Y-97040717D01*
X69191855Y-96873786D01*
X69186319Y-96704685D01*
X69157893Y-96582771D01*
X69270223Y-96531874D01*
X69371897Y-96459016D01*
X69457404Y-96367721D01*
X69523456Y-96261500D01*
X69567517Y-96144433D01*
X69746663Y-95475851D01*
X70031815Y-95761003D01*
X70055613Y-95790001D01*
X70171338Y-95884974D01*
X70303367Y-95955546D01*
X70446628Y-95999003D01*
X70539072Y-96008108D01*
X70544979Y-96008690D01*
X70590226Y-96053937D01*
X70759744Y-96167205D01*
X70948102Y-96245226D01*
X71148061Y-96285000D01*
X71351939Y-96285000D01*
X71551898Y-96245226D01*
X71740256Y-96167205D01*
X71909774Y-96053937D01*
X72053937Y-95909774D01*
X72167205Y-95740256D01*
X72245226Y-95551898D01*
X72285000Y-95351939D01*
X72285000Y-95148061D01*
X72245226Y-94948102D01*
X72167205Y-94759744D01*
X72053937Y-94590226D01*
X71909774Y-94446063D01*
X71740256Y-94332795D01*
X71551898Y-94254774D01*
X71351939Y-94215000D01*
X71148061Y-94215000D01*
X70948102Y-94254774D01*
X70759744Y-94332795D01*
X70755828Y-94335412D01*
X70200927Y-93780512D01*
X70266328Y-93536433D01*
X70286704Y-93413020D01*
X70282611Y-93288003D01*
X70254208Y-93166186D01*
X70202585Y-93052252D01*
X70129726Y-92950578D01*
X70038432Y-92865071D01*
X69932210Y-92799019D01*
X69815143Y-92754958D01*
X68945810Y-92522021D01*
X68822397Y-92501645D01*
X68697380Y-92505738D01*
X68575563Y-92534141D01*
X68461629Y-92585765D01*
X68359955Y-92658623D01*
X68274448Y-92749918D01*
X68208396Y-92856139D01*
X68164335Y-92973206D01*
X68031844Y-93467669D01*
X68024855Y-93452243D01*
X67951996Y-93350570D01*
X67860702Y-93265062D01*
X67754481Y-93199010D01*
X67637413Y-93154949D01*
X67477965Y-93115405D01*
X67283537Y-93227659D01*
X67089617Y-93951378D01*
X67861633Y-94158240D01*
X67965254Y-94098414D01*
X67969400Y-94116194D01*
X68021023Y-94230128D01*
X68093882Y-94331802D01*
X68124015Y-94360025D01*
X68083807Y-94369400D01*
X67969873Y-94421024D01*
X67868199Y-94493882D01*
X67855719Y-94507207D01*
X67795893Y-94403585D01*
X67023877Y-94196724D01*
X67018701Y-94216043D01*
X66773355Y-94150302D01*
X66778531Y-94130984D01*
X66759212Y-94125808D01*
X66824953Y-93880462D01*
X66844271Y-93885638D01*
X67038192Y-93161918D01*
X66925938Y-92967490D01*
X66768080Y-92922012D01*
X66728818Y-92915530D01*
X66749003Y-92848986D01*
X66760000Y-92737333D01*
X66760000Y-92737323D01*
X66763676Y-92700000D01*
X66760000Y-92662677D01*
X66760000Y-90566708D01*
X66763676Y-90529385D01*
X66760000Y-90492062D01*
X66760000Y-90492053D01*
X66749003Y-90380400D01*
X66705546Y-90237139D01*
X66634974Y-90105110D01*
X66540001Y-89989385D01*
X66511003Y-89965587D01*
X66233461Y-89688045D01*
X66045042Y-88984857D01*
X66011297Y-88895199D01*
X66007813Y-88859824D01*
X65964356Y-88716563D01*
X65893784Y-88584534D01*
X65798811Y-88468809D01*
X65769808Y-88445007D01*
X65621839Y-88297038D01*
X65615702Y-88259868D01*
X65561630Y-88058069D01*
X65883426Y-88534357D01*
X65897196Y-88552902D01*
X65910465Y-88571786D01*
X65922415Y-88586867D01*
X67045862Y-89967090D01*
X67061220Y-89984330D01*
X67076121Y-90001967D01*
X67089364Y-90015926D01*
X68331058Y-91290816D01*
X68347886Y-91306622D01*
X68364297Y-91322865D01*
X68378729Y-91335592D01*
X69728837Y-92495055D01*
X69747006Y-92509304D01*
X69764794Y-92524023D01*
X69780300Y-92535416D01*
X71228133Y-93570273D01*
X71247499Y-93582852D01*
X71266523Y-93595930D01*
X71282980Y-93605899D01*
X72817073Y-94507954D01*
X72837465Y-94518753D01*
X72857592Y-94530097D01*
X72874870Y-94538564D01*
X74483078Y-95300677D01*
X74504370Y-95309630D01*
X74525405Y-95319130D01*
X74543356Y-95326023D01*
X74543367Y-95326027D01*
X74543374Y-95326029D01*
X76212955Y-95942161D01*
X76234953Y-95949184D01*
X76256755Y-95956778D01*
X76275259Y-95962052D01*
X77993010Y-96427331D01*
X78015544Y-96432370D01*
X78037935Y-96437997D01*
X78056835Y-96441604D01*
X79809144Y-96752342D01*
X79832030Y-96755357D01*
X79854839Y-96758972D01*
X79873982Y-96760885D01*
X79873987Y-96760885D01*
X81646982Y-96914623D01*
X81670044Y-96915592D01*
X81693086Y-96917165D01*
X81712326Y-96917369D01*
X83491969Y-96912889D01*
X83515043Y-96911803D01*
X83538115Y-96911322D01*
X83557298Y-96909814D01*
X85329497Y-96747152D01*
X85352363Y-96744022D01*
X85375322Y-96741490D01*
X85394295Y-96738283D01*
X87145018Y-96418726D01*
X87167527Y-96413573D01*
X87190158Y-96409012D01*
X87208771Y-96404131D01*
X88924156Y-95930210D01*
X88946118Y-95923076D01*
X88968254Y-95916522D01*
X88986359Y-95910006D01*
X90652824Y-95285473D01*
X90674057Y-95276419D01*
X90695531Y-95267919D01*
X90712985Y-95259820D01*
X92317335Y-94489620D01*
X92337669Y-94478720D01*
X92358312Y-94468340D01*
X92374977Y-94458721D01*
X93526755Y-93773641D01*
X93481845Y-93872760D01*
X93443426Y-94037532D01*
X93437890Y-94206633D01*
X93465451Y-94373565D01*
X93581920Y-94808232D01*
X93641517Y-94966578D01*
X93730861Y-95110256D01*
X93844082Y-95231141D01*
X93820507Y-95283171D01*
X93792103Y-95404987D01*
X93788010Y-95530004D01*
X93808386Y-95653418D01*
X93853865Y-95811276D01*
X94048293Y-95923529D01*
X94844457Y-95710197D01*
X94839281Y-95690879D01*
X95084627Y-95625138D01*
X95089803Y-95644457D01*
X95109121Y-95639281D01*
X95174862Y-95884627D01*
X95155543Y-95889803D01*
X95160719Y-95909121D01*
X94915373Y-95974862D01*
X94910197Y-95955543D01*
X94114033Y-96168874D01*
X94001780Y-96363302D01*
X94041324Y-96522751D01*
X94073130Y-96607260D01*
X93940226Y-96696063D01*
X93796063Y-96840226D01*
X93682795Y-97009744D01*
X93604774Y-97198102D01*
X93565000Y-97398061D01*
X93565000Y-97601939D01*
X93604774Y-97801898D01*
X93682795Y-97990256D01*
X93796063Y-98159774D01*
X93940226Y-98303937D01*
X94109744Y-98417205D01*
X94298102Y-98495226D01*
X94498061Y-98535000D01*
X94701939Y-98535000D01*
X94901898Y-98495226D01*
X95090256Y-98417205D01*
X95259774Y-98303937D01*
X95314724Y-98248987D01*
X95457932Y-98205546D01*
X95589961Y-98134974D01*
X95705686Y-98040001D01*
X95729489Y-98010997D01*
X96870816Y-96869670D01*
X98211838Y-96869670D01*
X98224099Y-96994151D01*
X98260408Y-97113849D01*
X98319372Y-97224164D01*
X98398725Y-97320855D01*
X98517040Y-97434825D01*
X98741546Y-97434825D01*
X99324379Y-96851992D01*
X98759224Y-96286837D01*
X98534717Y-96286837D01*
X98398725Y-96418485D01*
X98319372Y-96515176D01*
X98260408Y-96625490D01*
X98224099Y-96745188D01*
X98211838Y-96869670D01*
X96870816Y-96869670D01*
X97265956Y-96474531D01*
X97294953Y-96450734D01*
X97336725Y-96399835D01*
X97389926Y-96335010D01*
X97460498Y-96202980D01*
X97460885Y-96201705D01*
X97497874Y-96167061D01*
X97570732Y-96065387D01*
X97622356Y-95951453D01*
X97638380Y-95882725D01*
X98938829Y-95882725D01*
X98938829Y-96107232D01*
X99503984Y-96672387D01*
X100086817Y-96089554D01*
X100086817Y-95865048D01*
X99972847Y-95746733D01*
X99876156Y-95667380D01*
X99765841Y-95608416D01*
X99646143Y-95572107D01*
X99521662Y-95559846D01*
X99397180Y-95572107D01*
X99277482Y-95608416D01*
X99167168Y-95667380D01*
X99070477Y-95746733D01*
X98938829Y-95882725D01*
X97638380Y-95882725D01*
X97650759Y-95829636D01*
X97654852Y-95704619D01*
X97634476Y-95581206D01*
X97501985Y-95086741D01*
X97515751Y-95096606D01*
X97629685Y-95148229D01*
X97751502Y-95176634D01*
X97876519Y-95180726D01*
X97999932Y-95160350D01*
X98157790Y-95114872D01*
X98270044Y-94920444D01*
X98076123Y-94196724D01*
X97304107Y-94403585D01*
X97244281Y-94507207D01*
X97231801Y-94493882D01*
X97130127Y-94421023D01*
X97016193Y-94369400D01*
X96975985Y-94360025D01*
X97006118Y-94331802D01*
X97078976Y-94230128D01*
X97130600Y-94116194D01*
X97134746Y-94098414D01*
X97238367Y-94158240D01*
X97928450Y-93973332D01*
X98299932Y-93973332D01*
X98340788Y-94125808D01*
X98321469Y-94130984D01*
X98515389Y-94854703D01*
X98709817Y-94966957D01*
X98869265Y-94927413D01*
X98986333Y-94883352D01*
X99092554Y-94817300D01*
X99183848Y-94731792D01*
X99256707Y-94630119D01*
X99308329Y-94516185D01*
X99336734Y-94394368D01*
X99340827Y-94269351D01*
X99320450Y-94145938D01*
X99287913Y-94036376D01*
X99178719Y-93973332D01*
X99475785Y-93973332D01*
X99482795Y-93990256D01*
X99596063Y-94159774D01*
X99740226Y-94303937D01*
X99909744Y-94417205D01*
X100027642Y-94466040D01*
X100002350Y-94513358D01*
X99966041Y-94633056D01*
X99953780Y-94757538D01*
X99966041Y-94882019D01*
X100002350Y-95001717D01*
X100061314Y-95112032D01*
X100140667Y-95208723D01*
X100258982Y-95322693D01*
X100483488Y-95322693D01*
X101013288Y-94792893D01*
X100999146Y-94778751D01*
X101178751Y-94599146D01*
X101192893Y-94613288D01*
X101722693Y-94083488D01*
X101722693Y-93858982D01*
X101608723Y-93740667D01*
X101512032Y-93661314D01*
X101431728Y-93618391D01*
X101435000Y-93601939D01*
X101435000Y-93439801D01*
X101996158Y-92878644D01*
X102035113Y-92915130D01*
X102141334Y-92981183D01*
X102258401Y-93025244D01*
X102441998Y-93071258D01*
X102522560Y-93024745D01*
X102881771Y-93024745D01*
X102994025Y-93219173D01*
X103176031Y-93271122D01*
X103299445Y-93291498D01*
X103424462Y-93287405D01*
X103546278Y-93259001D01*
X103660212Y-93207378D01*
X103761886Y-93134520D01*
X103847393Y-93043226D01*
X103913446Y-92937004D01*
X103957506Y-92819937D01*
X103997050Y-92660488D01*
X103884797Y-92466060D01*
X103088633Y-92252729D01*
X102881771Y-93024745D01*
X102522560Y-93024745D01*
X102636426Y-92959005D01*
X102843287Y-92186989D01*
X102823968Y-92181813D01*
X102889709Y-91936467D01*
X102909027Y-91941643D01*
X102914203Y-91922324D01*
X103159549Y-91988065D01*
X103154373Y-92007383D01*
X103950537Y-92220715D01*
X104144965Y-92108462D01*
X104190444Y-91950604D01*
X104210820Y-91827190D01*
X104206727Y-91702173D01*
X104178323Y-91580357D01*
X104154748Y-91528326D01*
X104267968Y-91407443D01*
X104357312Y-91263766D01*
X104416910Y-91105418D01*
X104533379Y-90670751D01*
X104560940Y-90503818D01*
X104555404Y-90334717D01*
X104516985Y-90169945D01*
X104447158Y-90015834D01*
X104348607Y-89878307D01*
X104225120Y-89762649D01*
X104081442Y-89673305D01*
X103923095Y-89613707D01*
X103471112Y-89492599D01*
X103553937Y-89409774D01*
X103667205Y-89240256D01*
X103745226Y-89051898D01*
X103785000Y-88851939D01*
X103785000Y-88648061D01*
X103745226Y-88448102D01*
X103667205Y-88259744D01*
X103553937Y-88090226D01*
X103409774Y-87946063D01*
X103240256Y-87832795D01*
X103051898Y-87754774D01*
X102851939Y-87715000D01*
X102648061Y-87715000D01*
X102448102Y-87754774D01*
X102259744Y-87832795D01*
X102090226Y-87946063D01*
X102046289Y-87990000D01*
X101041708Y-87990000D01*
X101004385Y-87986324D01*
X100967062Y-87990000D01*
X100967053Y-87990000D01*
X100855400Y-88000997D01*
X100712139Y-88044454D01*
X100580110Y-88115026D01*
X100464385Y-88209999D01*
X100440587Y-88238997D01*
X100080512Y-88599073D01*
X99836433Y-88533672D01*
X99713020Y-88513296D01*
X99588003Y-88517389D01*
X99466186Y-88545792D01*
X99352252Y-88597415D01*
X99250578Y-88670274D01*
X99165071Y-88761568D01*
X99099019Y-88867790D01*
X99054958Y-88984857D01*
X98822021Y-89854190D01*
X98801645Y-89977603D01*
X98805738Y-90102620D01*
X98834141Y-90224437D01*
X98885765Y-90338371D01*
X98958623Y-90440045D01*
X99049918Y-90525552D01*
X99156139Y-90591604D01*
X99273206Y-90635665D01*
X99767669Y-90768156D01*
X99752243Y-90775145D01*
X99650570Y-90848004D01*
X99565062Y-90939298D01*
X99499010Y-91045519D01*
X99454949Y-91162587D01*
X99415405Y-91322035D01*
X99527659Y-91516463D01*
X100251378Y-91710383D01*
X100458240Y-90938367D01*
X100398414Y-90834746D01*
X100416194Y-90830600D01*
X100530128Y-90778977D01*
X100631802Y-90706118D01*
X100660025Y-90675985D01*
X100669400Y-90716193D01*
X100721024Y-90830127D01*
X100793882Y-90931801D01*
X100807207Y-90944281D01*
X100703585Y-91004107D01*
X100496724Y-91776123D01*
X100516043Y-91781299D01*
X100450302Y-92026645D01*
X100430984Y-92021469D01*
X100425808Y-92040788D01*
X100180462Y-91975047D01*
X100185638Y-91955729D01*
X99461918Y-91761808D01*
X99267490Y-91874062D01*
X99222012Y-92031920D01*
X99201636Y-92155333D01*
X99205728Y-92280350D01*
X99234133Y-92402167D01*
X99257316Y-92453332D01*
X96453387Y-92453332D01*
X96416054Y-92449655D01*
X96378721Y-92453332D01*
X96267068Y-92464329D01*
X96123807Y-92507786D01*
X96039866Y-92552654D01*
X95284857Y-92754958D01*
X95167790Y-92799019D01*
X95061569Y-92865071D01*
X94970274Y-92950578D01*
X94955706Y-92970908D01*
X94947806Y-92977391D01*
X94947802Y-92977395D01*
X94918809Y-93001189D01*
X94895015Y-93030183D01*
X94764377Y-93160820D01*
X94725630Y-93159552D01*
X94558698Y-93187112D01*
X94322911Y-93250291D01*
X95401781Y-92470919D01*
X95419887Y-92456572D01*
X95438342Y-92442718D01*
X95453021Y-92430315D01*
X95453040Y-92430300D01*
X95453052Y-92430288D01*
X96797293Y-91264053D01*
X96814045Y-91248159D01*
X96831203Y-91232713D01*
X96844739Y-91219038D01*
X98079997Y-89937912D01*
X98095265Y-89920598D01*
X98110987Y-89903682D01*
X98123254Y-89888857D01*
X99239738Y-88502996D01*
X99253411Y-88484387D01*
X99267562Y-88466147D01*
X99278451Y-88450306D01*
X99278462Y-88450291D01*
X99278468Y-88450280D01*
X100267330Y-86970666D01*
X100279280Y-86950938D01*
X100291768Y-86931490D01*
X100301216Y-86914728D01*
X101154640Y-85353057D01*
X101164799Y-85332325D01*
X101175499Y-85311863D01*
X101183419Y-85294327D01*
X101894640Y-83662975D01*
X101902917Y-83641417D01*
X101911754Y-83620089D01*
X101918084Y-83601919D01*
X102481471Y-81913801D01*
X102487799Y-81891592D01*
X102494705Y-81869564D01*
X102499395Y-81850903D01*
X102910487Y-80119387D01*
X102914814Y-80096717D01*
X102919737Y-80074149D01*
X102922749Y-80055144D01*
X103178293Y-78293938D01*
X103180587Y-78270977D01*
X103183485Y-78248057D01*
X103184795Y-78228860D01*
X103282766Y-76451911D01*
X103283010Y-76428839D01*
X103283859Y-76405751D01*
X103283458Y-76386513D01*
X103223080Y-74607889D01*
X103221270Y-74584856D01*
X103220064Y-74561813D01*
X103217955Y-74542688D01*
X102999707Y-72776473D01*
X102995861Y-72753724D01*
X102992608Y-72730848D01*
X102988806Y-72711985D01*
X102614417Y-70972165D01*
X102608559Y-70949825D01*
X102603290Y-70927352D01*
X102597827Y-70908902D01*
X102070258Y-69209248D01*
X102062432Y-69187505D01*
X102055191Y-69165602D01*
X102048110Y-69147711D01*
X101371541Y-67501685D01*
X101361821Y-67480741D01*
X101352654Y-67459550D01*
X101344010Y-67442359D01*
X100523796Y-65862993D01*
X100512247Y-65842986D01*
X100501238Y-65822705D01*
X100491100Y-65806350D01*
X99533739Y-64306149D01*
X99520459Y-64287250D01*
X99507689Y-64268025D01*
X99496153Y-64252658D01*
X99496138Y-64252637D01*
X99496127Y-64252623D01*
X98409205Y-62843479D01*
X98394320Y-62825861D01*
X98379870Y-62807821D01*
X98366996Y-62793521D01*
X98116423Y-62522397D01*
X98801645Y-62522397D01*
X98822021Y-62645810D01*
X99054958Y-63515143D01*
X99099019Y-63632210D01*
X99165071Y-63738431D01*
X99250578Y-63829726D01*
X99352252Y-63902584D01*
X99466186Y-63954208D01*
X99549701Y-63973681D01*
X99719681Y-64143661D01*
X99735705Y-64240717D01*
X99865114Y-64723680D01*
X99924713Y-64882029D01*
X100014057Y-65025706D01*
X100129716Y-65149193D01*
X100267243Y-65247744D01*
X100421353Y-65317570D01*
X100586125Y-65355989D01*
X100755226Y-65361525D01*
X100911709Y-65335689D01*
X101087023Y-65511002D01*
X101110821Y-65540001D01*
X101139819Y-65563799D01*
X101226546Y-65634974D01*
X101358575Y-65705546D01*
X101501836Y-65749003D01*
X101650822Y-65763677D01*
X101688155Y-65760000D01*
X104762678Y-65760000D01*
X104800000Y-65763676D01*
X104837322Y-65760000D01*
X104837333Y-65760000D01*
X104948986Y-65749003D01*
X105092247Y-65705546D01*
X105224276Y-65634974D01*
X105340001Y-65540001D01*
X105363803Y-65510998D01*
X105439801Y-65435000D01*
X105501939Y-65435000D01*
X105701898Y-65395226D01*
X105890256Y-65317205D01*
X106059774Y-65203937D01*
X106203937Y-65059774D01*
X106317205Y-64890256D01*
X106395226Y-64701898D01*
X106435000Y-64501939D01*
X106435000Y-64298061D01*
X106395226Y-64098102D01*
X106317205Y-63909744D01*
X106203937Y-63740226D01*
X106059774Y-63596063D01*
X105890256Y-63482795D01*
X105701898Y-63404774D01*
X105501939Y-63365000D01*
X105298061Y-63365000D01*
X105098102Y-63404774D01*
X104909744Y-63482795D01*
X104740226Y-63596063D01*
X104596063Y-63740226D01*
X104482795Y-63909744D01*
X104404774Y-64098102D01*
X104376549Y-64240000D01*
X103535325Y-64240000D01*
X103538812Y-64225047D01*
X103542905Y-64100030D01*
X103522529Y-63976616D01*
X103470580Y-63794610D01*
X103276152Y-63682356D01*
X102504136Y-63889218D01*
X102509312Y-63908536D01*
X102263966Y-63974277D01*
X102258790Y-63954958D01*
X102239472Y-63960134D01*
X102173731Y-63714788D01*
X102193050Y-63709612D01*
X102187874Y-63690294D01*
X102433220Y-63624553D01*
X102438396Y-63643872D01*
X103210412Y-63437011D01*
X103322665Y-63242583D01*
X103276651Y-63058986D01*
X103232590Y-62941919D01*
X103166537Y-62835698D01*
X103081030Y-62744404D01*
X102979357Y-62671545D01*
X102914917Y-62642348D01*
X102915994Y-62609455D01*
X102895618Y-62486042D01*
X102809640Y-62165166D01*
X102939806Y-62035000D01*
X103001943Y-62035000D01*
X103201902Y-61995226D01*
X103390260Y-61917205D01*
X103559778Y-61803937D01*
X103703941Y-61659774D01*
X103817209Y-61490256D01*
X103895230Y-61301898D01*
X103935004Y-61101939D01*
X103935004Y-60898061D01*
X103895230Y-60698102D01*
X103817209Y-60509744D01*
X103703941Y-60340226D01*
X103617121Y-60253406D01*
X103636817Y-60232960D01*
X103636817Y-60008454D01*
X103053984Y-59425621D01*
X102488829Y-59990776D01*
X102488829Y-60050038D01*
X102409748Y-60082795D01*
X102240230Y-60196063D01*
X102096067Y-60340226D01*
X101982799Y-60509744D01*
X101904778Y-60698102D01*
X101865004Y-60898061D01*
X101865004Y-60960198D01*
X101578594Y-61246608D01*
X101386741Y-61298015D01*
X101396606Y-61284249D01*
X101448229Y-61170315D01*
X101476634Y-61048498D01*
X101480726Y-60923481D01*
X101460350Y-60800068D01*
X101414872Y-60642210D01*
X101220444Y-60529956D01*
X100496724Y-60723877D01*
X100703585Y-61495893D01*
X100807207Y-61555719D01*
X100793882Y-61568199D01*
X100721023Y-61669873D01*
X100669400Y-61783807D01*
X100660025Y-61824015D01*
X100631802Y-61793882D01*
X100530128Y-61721024D01*
X100416194Y-61669400D01*
X100398414Y-61665254D01*
X100458240Y-61561633D01*
X100251378Y-60789617D01*
X99527659Y-60983537D01*
X99415405Y-61177965D01*
X99454949Y-61337413D01*
X99499010Y-61454481D01*
X99565062Y-61560702D01*
X99650570Y-61651996D01*
X99752243Y-61724855D01*
X99767669Y-61731844D01*
X99273206Y-61864335D01*
X99156139Y-61908396D01*
X99049917Y-61974448D01*
X98958623Y-62059955D01*
X98885764Y-62161629D01*
X98834141Y-62275563D01*
X98805738Y-62397380D01*
X98801645Y-62522397D01*
X98116423Y-62522397D01*
X97159101Y-61486564D01*
X97142698Y-61470328D01*
X97126712Y-61453655D01*
X97112618Y-61440556D01*
X95902145Y-60344667D01*
X99201636Y-60344667D01*
X99222012Y-60468080D01*
X99267490Y-60625938D01*
X99461918Y-60738192D01*
X100185638Y-60544271D01*
X99978777Y-59772255D01*
X99864912Y-59706515D01*
X100224122Y-59706515D01*
X100430984Y-60478531D01*
X101154703Y-60284611D01*
X101266957Y-60090183D01*
X101227413Y-59930735D01*
X101183352Y-59813667D01*
X101117300Y-59707446D01*
X101031792Y-59616152D01*
X100930119Y-59543293D01*
X100816185Y-59491671D01*
X100694368Y-59463266D01*
X100569351Y-59459173D01*
X100445938Y-59479550D01*
X100336376Y-59512087D01*
X100224122Y-59706515D01*
X99864912Y-59706515D01*
X99784349Y-59660002D01*
X99673197Y-59686605D01*
X99556130Y-59730665D01*
X99449908Y-59796718D01*
X99358614Y-59882225D01*
X99285756Y-59983899D01*
X99234133Y-60097833D01*
X99205728Y-60219650D01*
X99201636Y-60344667D01*
X95902145Y-60344667D01*
X95793324Y-60246148D01*
X95775542Y-60231434D01*
X95758138Y-60216249D01*
X95742935Y-60204454D01*
X94322688Y-59132052D01*
X94303681Y-59118986D01*
X94284984Y-59105399D01*
X94268793Y-59095002D01*
X92758837Y-58153097D01*
X92738711Y-58141754D01*
X92718912Y-58129902D01*
X92701861Y-58120985D01*
X91114154Y-57317036D01*
X91093093Y-57307524D01*
X91072325Y-57297482D01*
X91054549Y-57290116D01*
X89401662Y-56630488D01*
X89379842Y-56622887D01*
X89358261Y-56614730D01*
X89339910Y-56608977D01*
X89339895Y-56608972D01*
X87634918Y-56098890D01*
X87612547Y-56093268D01*
X87590288Y-56087051D01*
X87571488Y-56082950D01*
X85827914Y-55726448D01*
X85805115Y-55722835D01*
X85782408Y-55718624D01*
X85763319Y-55716211D01*
X83994955Y-55516114D01*
X83971926Y-55514542D01*
X83948933Y-55512366D01*
X83929706Y-55511659D01*
X83929704Y-55511659D01*
X82150554Y-55469552D01*
X82127470Y-55470033D01*
X82104383Y-55469910D01*
X82085167Y-55470915D01*
X80309318Y-55587130D01*
X80286367Y-55589661D01*
X80263359Y-55591591D01*
X80244309Y-55594300D01*
X78854869Y-55810496D01*
X62199847Y-39137818D01*
X62199847Y-39025520D01*
X61164466Y-37990139D01*
X61150324Y-38004282D01*
X60970719Y-37824677D01*
X60984861Y-37810534D01*
X60970719Y-37796392D01*
X61086633Y-37680478D01*
X61979001Y-38572846D01*
%TA.AperFunction,Conductor*%
D15*
G36*
X61979001Y-38572846D02*
G01*
X62075692Y-38652198D01*
X62116213Y-38673858D01*
X77944142Y-54501787D01*
X77979368Y-54586829D01*
X78092636Y-54756347D01*
X78236799Y-54900510D01*
X78406317Y-55013778D01*
X78594675Y-55091799D01*
X78794634Y-55131573D01*
X78998512Y-55131573D01*
X79198471Y-55091799D01*
X79386829Y-55013778D01*
X79556347Y-54900510D01*
X79658970Y-54797887D01*
X79664071Y-54802073D01*
X79816697Y-54883653D01*
X79830846Y-54891216D01*
X80011807Y-54946110D01*
X80152838Y-54960000D01*
X80152840Y-54960000D01*
X80200000Y-54964645D01*
X80247160Y-54960000D01*
X80413060Y-54960000D01*
X80498102Y-54995226D01*
X80698061Y-55035000D01*
X80901939Y-55035000D01*
X81101898Y-54995226D01*
X81290256Y-54917205D01*
X81459774Y-54803937D01*
X81603937Y-54659774D01*
X81717205Y-54490256D01*
X81795226Y-54301898D01*
X81835000Y-54101939D01*
X81835000Y-53898061D01*
X81795226Y-53698102D01*
X81717205Y-53509744D01*
X81683967Y-53460000D01*
X81713060Y-53460000D01*
X81798102Y-53495226D01*
X81998061Y-53535000D01*
X82201939Y-53535000D01*
X82401898Y-53495226D01*
X82590256Y-53417205D01*
X82759774Y-53303937D01*
X82903937Y-53159774D01*
X83017205Y-52990256D01*
X83095226Y-52801898D01*
X83135000Y-52601939D01*
X83135000Y-52398061D01*
X83095226Y-52198102D01*
X83017205Y-52009744D01*
X83008946Y-51997383D01*
X83198061Y-52035000D01*
X83401939Y-52035000D01*
X83601898Y-51995226D01*
X83790256Y-51917205D01*
X83959774Y-51803937D01*
X84103937Y-51659774D01*
X84217205Y-51490256D01*
X84295226Y-51301898D01*
X84335000Y-51101939D01*
X84335000Y-50898061D01*
X84315222Y-50798631D01*
X84498061Y-50835000D01*
X84701939Y-50835000D01*
X84901898Y-50795226D01*
X85090256Y-50717205D01*
X85259774Y-50603937D01*
X85403937Y-50459774D01*
X85517205Y-50290256D01*
X85595226Y-50101898D01*
X85635000Y-49901939D01*
X85635000Y-49698061D01*
X85595226Y-49498102D01*
X85563242Y-49420886D01*
X88787828Y-52645473D01*
X88817893Y-52682107D01*
X88854525Y-52712170D01*
X88964071Y-52802073D01*
X89022163Y-52833124D01*
X89130846Y-52891216D01*
X89311807Y-52946110D01*
X89452838Y-52960000D01*
X89452847Y-52960000D01*
X89499999Y-52964644D01*
X89547151Y-52960000D01*
X94640001Y-52960000D01*
X94640001Y-52966603D01*
X94448102Y-53004774D01*
X94259744Y-53082795D01*
X94090226Y-53196063D01*
X93946063Y-53340226D01*
X93832795Y-53509744D01*
X93754774Y-53698102D01*
X93715000Y-53898061D01*
X93715000Y-54101939D01*
X93754774Y-54301898D01*
X93832795Y-54490256D01*
X93946063Y-54659774D01*
X93990000Y-54703711D01*
X93990001Y-57383282D01*
X93986324Y-57420614D01*
X93990001Y-57457947D01*
X94000998Y-57569600D01*
X94005076Y-57583043D01*
X94044454Y-57712860D01*
X94115026Y-57844890D01*
X94186201Y-57931616D01*
X94210000Y-57960615D01*
X94238998Y-57984413D01*
X94925488Y-58670904D01*
X94833672Y-59013567D01*
X94813296Y-59136980D01*
X94817389Y-59261997D01*
X94845792Y-59383814D01*
X94897415Y-59497748D01*
X94970274Y-59599422D01*
X95061568Y-59684929D01*
X95167790Y-59750981D01*
X95284857Y-59795042D01*
X96154190Y-60027979D01*
X96277603Y-60048355D01*
X96402620Y-60044262D01*
X96524437Y-60015859D01*
X96638371Y-59964235D01*
X96740045Y-59891377D01*
X96825552Y-59800082D01*
X96891604Y-59693861D01*
X96935665Y-59576794D01*
X97068156Y-59082331D01*
X97075145Y-59097757D01*
X97148004Y-59199430D01*
X97239298Y-59284938D01*
X97345519Y-59350990D01*
X97462587Y-59395051D01*
X97622035Y-59434595D01*
X97702597Y-59388082D01*
X98061808Y-59388082D01*
X98174062Y-59582510D01*
X98331920Y-59627988D01*
X98455333Y-59648364D01*
X98580350Y-59644272D01*
X98702167Y-59615867D01*
X98816101Y-59564244D01*
X98917775Y-59491386D01*
X99003282Y-59400092D01*
X99069335Y-59293870D01*
X99093998Y-59228338D01*
X101761838Y-59228338D01*
X101774099Y-59352820D01*
X101810408Y-59472518D01*
X101869372Y-59582832D01*
X101948725Y-59679523D01*
X102084717Y-59811171D01*
X102309224Y-59811171D01*
X102874379Y-59246016D01*
X102291546Y-58663183D01*
X102067040Y-58663183D01*
X101948725Y-58777153D01*
X101869372Y-58873844D01*
X101810408Y-58984159D01*
X101774099Y-59103857D01*
X101761838Y-59228338D01*
X99093998Y-59228338D01*
X99113395Y-59176803D01*
X99139998Y-59065651D01*
X99027745Y-58871223D01*
X98255729Y-58664362D01*
X98061808Y-59388082D01*
X97702597Y-59388082D01*
X97816463Y-59322341D01*
X98010383Y-58598622D01*
X97340088Y-58419016D01*
X98321469Y-58419016D01*
X99093485Y-58625878D01*
X99287913Y-58513624D01*
X99320450Y-58404062D01*
X99329068Y-58351867D01*
X100527738Y-58351867D01*
X100527738Y-58576374D01*
X100606353Y-58659333D01*
X100703044Y-58738686D01*
X100813358Y-58797650D01*
X100933056Y-58833959D01*
X101057538Y-58846220D01*
X101182019Y-58833959D01*
X101301717Y-58797650D01*
X101412032Y-58738686D01*
X101508723Y-58659333D01*
X101622693Y-58541018D01*
X101622693Y-58316512D01*
X101092893Y-57786712D01*
X100527738Y-58351867D01*
X99329068Y-58351867D01*
X99340827Y-58280649D01*
X99336734Y-58155632D01*
X99308329Y-58033815D01*
X99256707Y-57919881D01*
X99183848Y-57818208D01*
X99092554Y-57732700D01*
X98986333Y-57666648D01*
X98922072Y-57642462D01*
X99853780Y-57642462D01*
X99866041Y-57766944D01*
X99902350Y-57886642D01*
X99961314Y-57996956D01*
X100040667Y-58093647D01*
X100123626Y-58172262D01*
X100348133Y-58172262D01*
X100913288Y-57607107D01*
X100383488Y-57077307D01*
X100158982Y-57077307D01*
X100040667Y-57191277D01*
X99961314Y-57287968D01*
X99902350Y-57398283D01*
X99866041Y-57517981D01*
X99853780Y-57642462D01*
X98922072Y-57642462D01*
X98869265Y-57622587D01*
X98709817Y-57583043D01*
X98515389Y-57695297D01*
X98321469Y-58419016D01*
X97340088Y-58419016D01*
X97238367Y-58391760D01*
X97134746Y-58451586D01*
X97130600Y-58433806D01*
X97078977Y-58319872D01*
X97006118Y-58218198D01*
X96975985Y-58189975D01*
X97016193Y-58180600D01*
X97130127Y-58128976D01*
X97231801Y-58056118D01*
X97244281Y-58042793D01*
X97304107Y-58146415D01*
X98076123Y-58353276D01*
X98270044Y-57629556D01*
X98157790Y-57435128D01*
X97999932Y-57389650D01*
X97876519Y-57369274D01*
X97751502Y-57373366D01*
X97629685Y-57401771D01*
X97515751Y-57453394D01*
X97501985Y-57463259D01*
X97634476Y-56968794D01*
X97654852Y-56845381D01*
X97653535Y-56805140D01*
X97701146Y-56849733D01*
X97807368Y-56915786D01*
X97924435Y-56959846D01*
X98083884Y-56999390D01*
X98278312Y-56887137D01*
X98491643Y-56090973D01*
X98472324Y-56085797D01*
X98538065Y-55840451D01*
X98557383Y-55845627D01*
X98562559Y-55826308D01*
X98807905Y-55892048D01*
X98802729Y-55911367D01*
X98822048Y-55916543D01*
X98756307Y-56161889D01*
X98736989Y-56156713D01*
X98523657Y-56952877D01*
X98635910Y-57147305D01*
X98793768Y-57192784D01*
X98917182Y-57213160D01*
X99042199Y-57209067D01*
X99164015Y-57180663D01*
X99277950Y-57129040D01*
X99379623Y-57056181D01*
X99465130Y-56964887D01*
X99531183Y-56858666D01*
X99575244Y-56741599D01*
X99621258Y-56558002D01*
X99570189Y-56469548D01*
X99572156Y-56470145D01*
X99683809Y-56481142D01*
X99683819Y-56481142D01*
X99721142Y-56484818D01*
X99758465Y-56481142D01*
X100766913Y-56481142D01*
X100677063Y-56554881D01*
X100563093Y-56673196D01*
X100563093Y-56897702D01*
X101092893Y-57427502D01*
X101658048Y-56862347D01*
X101658048Y-56742696D01*
X101675518Y-56747995D01*
X101800000Y-56760255D01*
X101924482Y-56747995D01*
X101963989Y-56736011D01*
X101952005Y-56775518D01*
X101939745Y-56900000D01*
X101951480Y-57019155D01*
X101949235Y-57041952D01*
X101837653Y-57041952D01*
X101272498Y-57607107D01*
X101802298Y-58136907D01*
X102026804Y-58136907D01*
X102145119Y-58022937D01*
X102224472Y-57926246D01*
X102283436Y-57815931D01*
X102314209Y-57714483D01*
X102418430Y-57770191D01*
X102561691Y-57813648D01*
X102592089Y-57816642D01*
X102692318Y-57916871D01*
X102789009Y-57996223D01*
X102797558Y-58000793D01*
X102792127Y-58002440D01*
X102681812Y-58061404D01*
X102585121Y-58140757D01*
X102471151Y-58259072D01*
X102471151Y-58483578D01*
X103053984Y-59066411D01*
X103068127Y-59052269D01*
X103247732Y-59231874D01*
X103233589Y-59246016D01*
X103816422Y-59828849D01*
X104040928Y-59828849D01*
X104062962Y-59807624D01*
X104004774Y-59948102D01*
X103965000Y-60148061D01*
X103965000Y-60351939D01*
X104004774Y-60551898D01*
X104082795Y-60740256D01*
X104196063Y-60909774D01*
X104340226Y-61053937D01*
X104509744Y-61167205D01*
X104698102Y-61245226D01*
X104898061Y-61285000D01*
X105101939Y-61285000D01*
X105301898Y-61245226D01*
X105490256Y-61167205D01*
X105659774Y-61053937D01*
X105803937Y-60909774D01*
X105917205Y-60740256D01*
X105995226Y-60551898D01*
X106035000Y-60351939D01*
X106035000Y-60148061D01*
X106010985Y-60027327D01*
X106013676Y-60000001D01*
X106010000Y-59962678D01*
X106010000Y-59287323D01*
X106013676Y-59250000D01*
X106010000Y-59212677D01*
X106010000Y-59212667D01*
X105999003Y-59101014D01*
X105955546Y-58957753D01*
X105909294Y-58871223D01*
X105884974Y-58825723D01*
X105813799Y-58738997D01*
X105790001Y-58709999D01*
X105761004Y-58686202D01*
X105339402Y-58264600D01*
X105348948Y-58167678D01*
X105332364Y-57999301D01*
X105283251Y-57837395D01*
X105203494Y-57688181D01*
X105096160Y-57557394D01*
X104742606Y-57203840D01*
X104611819Y-57096506D01*
X104462605Y-57016749D01*
X104393011Y-56995638D01*
X104405711Y-56953772D01*
X104417971Y-56829290D01*
X104412398Y-56772705D01*
X105271616Y-57757094D01*
X106532077Y-59428816D01*
X107669803Y-61186402D01*
X108678948Y-63020823D01*
X109554358Y-64922710D01*
X110291548Y-66882321D01*
X110886742Y-68889618D01*
X111336894Y-70934320D01*
X111639704Y-73005990D01*
X111793622Y-75094006D01*
X111797857Y-77187665D01*
X111652389Y-79276300D01*
X111357963Y-81349163D01*
X110916084Y-83395687D01*
X110329015Y-85405376D01*
X109599764Y-87367939D01*
X108732059Y-89273348D01*
X107730345Y-91111836D01*
X106599738Y-92874012D01*
X105346039Y-94550836D01*
X104512366Y-95513796D01*
X104505711Y-95446228D01*
X104469401Y-95326530D01*
X104410436Y-95216216D01*
X104331084Y-95119525D01*
X104312787Y-95101228D01*
X105850222Y-93563794D01*
X105879214Y-93540001D01*
X105903008Y-93511008D01*
X105903012Y-93511004D01*
X105974186Y-93424277D01*
X105974187Y-93424276D01*
X106044759Y-93292247D01*
X106088216Y-93148986D01*
X106092896Y-93101467D01*
X106167205Y-92990256D01*
X106245226Y-92801898D01*
X106285000Y-92601939D01*
X106285000Y-92398061D01*
X106245226Y-92198102D01*
X106167205Y-92009744D01*
X106053937Y-91840226D01*
X105909774Y-91696063D01*
X105740256Y-91582795D01*
X105551898Y-91504774D01*
X105351939Y-91465000D01*
X105148061Y-91465000D01*
X104948102Y-91504774D01*
X104759744Y-91582795D01*
X104590226Y-91696063D01*
X104446063Y-91840226D01*
X104332795Y-92009744D01*
X104254774Y-92198102D01*
X104215000Y-92398061D01*
X104215000Y-92601939D01*
X104254774Y-92801898D01*
X104315619Y-92948791D01*
X102465059Y-94799353D01*
X102430732Y-94841180D01*
X102432006Y-94828248D01*
X102419745Y-94703767D01*
X102383436Y-94584069D01*
X102324472Y-94473754D01*
X102245119Y-94377063D01*
X102126804Y-94263093D01*
X101902298Y-94263093D01*
X101372498Y-94792893D01*
X101937653Y-95358048D01*
X102057304Y-95358048D01*
X102052005Y-95375518D01*
X102039745Y-95500000D01*
X102051121Y-95615505D01*
X101968198Y-95607338D01*
X101819212Y-95622012D01*
X101758048Y-95640566D01*
X101758048Y-95537653D01*
X101192893Y-94972498D01*
X100663093Y-95502298D01*
X100663093Y-95726804D01*
X100777063Y-95845119D01*
X100873754Y-95924472D01*
X100984069Y-95983436D01*
X101103767Y-96019745D01*
X101228248Y-96032006D01*
X101232859Y-96031552D01*
X100722034Y-96542378D01*
X100688596Y-96479820D01*
X100609243Y-96383129D01*
X100490928Y-96269159D01*
X100266422Y-96269159D01*
X99683589Y-96851992D01*
X99697732Y-96866135D01*
X99518127Y-97045740D01*
X99503984Y-97031597D01*
X98921151Y-97614430D01*
X98921151Y-97838936D01*
X99035121Y-97957251D01*
X99131812Y-98036604D01*
X99242127Y-98095568D01*
X99346100Y-98127107D01*
X98919656Y-98553551D01*
X98801898Y-98504774D01*
X98601939Y-98465000D01*
X98398061Y-98465000D01*
X98198102Y-98504774D01*
X98009744Y-98582795D01*
X97840226Y-98696063D01*
X97696063Y-98840226D01*
X97582795Y-99009744D01*
X97504774Y-99198102D01*
X97465000Y-99398061D01*
X97465000Y-99601939D01*
X97504774Y-99801898D01*
X97582795Y-99990256D01*
X97696063Y-100159774D01*
X97840226Y-100303937D01*
X98009744Y-100417205D01*
X98198102Y-100495226D01*
X98398061Y-100535000D01*
X98601939Y-100535000D01*
X98801898Y-100495226D01*
X98911407Y-100449866D01*
X97475829Y-101372053D01*
X95637880Y-102374797D01*
X93732959Y-103243558D01*
X91770800Y-103973898D01*
X89761433Y-104562084D01*
X87715162Y-105005098D01*
X85642442Y-105300677D01*
X83553914Y-105447304D01*
X81460238Y-105444231D01*
X79372141Y-105291474D01*
X77300303Y-104989812D01*
X75255337Y-104540792D01*
X73247716Y-103946714D01*
X71287699Y-103210612D01*
X69385330Y-102336260D01*
X67550346Y-101328132D01*
X65792145Y-100191393D01*
X64119702Y-98931844D01*
X63180733Y-98113189D01*
X63229290Y-98117971D01*
X63353772Y-98105711D01*
X63473470Y-98069401D01*
X63487240Y-98062041D01*
X64336201Y-98911003D01*
X64359999Y-98940001D01*
X64475724Y-99034974D01*
X64607753Y-99105546D01*
X64751014Y-99149003D01*
X64789037Y-99152748D01*
X64840226Y-99203937D01*
X65009744Y-99317205D01*
X65198102Y-99395226D01*
X65398061Y-99435000D01*
X65601939Y-99435000D01*
X65801898Y-99395226D01*
X65990256Y-99317205D01*
X66159774Y-99203937D01*
X66303937Y-99059774D01*
X66417205Y-98890256D01*
X66495226Y-98701898D01*
X66535000Y-98501939D01*
X66535000Y-98298061D01*
X66495226Y-98098102D01*
X66417205Y-97909744D01*
X66303937Y-97740226D01*
X66159774Y-97596063D01*
X66081461Y-97543736D01*
X66182533Y-97485382D01*
X66395864Y-96689218D01*
X65623848Y-96482356D01*
X65429420Y-96594610D01*
X65377471Y-96776616D01*
X65357095Y-96900030D01*
X65361188Y-97025047D01*
X65389592Y-97146863D01*
X65441215Y-97260797D01*
X65514073Y-97362471D01*
X65516773Y-97365000D01*
X65398061Y-97365000D01*
X65198102Y-97404774D01*
X65043581Y-97468779D01*
X64496096Y-96921295D01*
X64503758Y-96843503D01*
X64491498Y-96719021D01*
X64455188Y-96599323D01*
X64396223Y-96489009D01*
X64316871Y-96392318D01*
X63954899Y-96030346D01*
X63971752Y-96032006D01*
X64096233Y-96019745D01*
X64215931Y-95983436D01*
X64326246Y-95924472D01*
X64422937Y-95845119D01*
X64536907Y-95726804D01*
X64536907Y-95502298D01*
X64007107Y-94972498D01*
X63441952Y-95537653D01*
X63441952Y-95657304D01*
X63424482Y-95652005D01*
X63300000Y-95639745D01*
X63175518Y-95652005D01*
X63136011Y-95663989D01*
X63147995Y-95624482D01*
X63160255Y-95500000D01*
X63147995Y-95375518D01*
X63142696Y-95358048D01*
X63262347Y-95358048D01*
X63827502Y-94792893D01*
X63297702Y-94263093D01*
X63073196Y-94263093D01*
X62954881Y-94377063D01*
X62875528Y-94473754D01*
X62816564Y-94584069D01*
X62780255Y-94703767D01*
X62767994Y-94828248D01*
X62769654Y-94845101D01*
X62407682Y-94483129D01*
X62310991Y-94403777D01*
X62221351Y-94355863D01*
X62261857Y-94343576D01*
X62372172Y-94284612D01*
X62468863Y-94205259D01*
X62582833Y-94086944D01*
X62582833Y-93862438D01*
X62000000Y-93279605D01*
X61985858Y-93293748D01*
X61806253Y-93114143D01*
X61820395Y-93100000D01*
X62179605Y-93100000D01*
X62762438Y-93682833D01*
X62986944Y-93682833D01*
X63105259Y-93568863D01*
X63184612Y-93472172D01*
X63243576Y-93361857D01*
X63279885Y-93242159D01*
X63292146Y-93117678D01*
X63279885Y-92993196D01*
X63243576Y-92873498D01*
X63184612Y-92763184D01*
X63105259Y-92666493D01*
X62969267Y-92534845D01*
X62744760Y-92534845D01*
X62179605Y-93100000D01*
X61820395Y-93100000D01*
X61237562Y-92517167D01*
X61013056Y-92517167D01*
X60894741Y-92631137D01*
X60815388Y-92727828D01*
X60756424Y-92838143D01*
X60724885Y-92942116D01*
X60159455Y-92376686D01*
X60217205Y-92290256D01*
X60290604Y-92113056D01*
X61417167Y-92113056D01*
X61417167Y-92337562D01*
X62000000Y-92920395D01*
X62565155Y-92355240D01*
X62565155Y-92130733D01*
X62433507Y-91994741D01*
X62336816Y-91915388D01*
X62226502Y-91856424D01*
X62106804Y-91820115D01*
X61982322Y-91807854D01*
X61857841Y-91820115D01*
X61738143Y-91856424D01*
X61627828Y-91915388D01*
X61531137Y-91994741D01*
X61417167Y-92113056D01*
X60290604Y-92113056D01*
X60295226Y-92101898D01*
X60335000Y-91901939D01*
X60335000Y-91698061D01*
X60295226Y-91498102D01*
X60217205Y-91309744D01*
X60103937Y-91140226D01*
X59959774Y-90996063D01*
X59790256Y-90882795D01*
X59601898Y-90804774D01*
X59401939Y-90765000D01*
X59198061Y-90765000D01*
X58998102Y-90804774D01*
X58809744Y-90882795D01*
X58640226Y-90996063D01*
X58496063Y-91140226D01*
X58382795Y-91309744D01*
X58304774Y-91498102D01*
X58265000Y-91698061D01*
X58265000Y-91901939D01*
X58304774Y-92101898D01*
X58382795Y-92290256D01*
X58496063Y-92459774D01*
X58540000Y-92503711D01*
X58540000Y-92554710D01*
X58536324Y-92592032D01*
X58540000Y-92629354D01*
X58540000Y-92629364D01*
X58550997Y-92741017D01*
X58589144Y-92866774D01*
X58594454Y-92884278D01*
X58665026Y-93016308D01*
X58694525Y-93052252D01*
X58759999Y-93132033D01*
X58789003Y-93155836D01*
X59714582Y-94081416D01*
X59705036Y-94178338D01*
X59721620Y-94346715D01*
X59770733Y-94508621D01*
X59850490Y-94657835D01*
X59861905Y-94671744D01*
X59700184Y-94483832D01*
X58451418Y-92803342D01*
X57325995Y-91037864D01*
X56329676Y-89196431D01*
X55467572Y-87288495D01*
X54744081Y-85323785D01*
X54162916Y-83312388D01*
X53727046Y-81264576D01*
X53438708Y-79190864D01*
X53298872Y-77094335D01*
X53296416Y-76935000D01*
X61841558Y-76935000D01*
X61925681Y-78332724D01*
X61928090Y-78355670D01*
X61929901Y-78378704D01*
X61932510Y-78397768D01*
X62196919Y-80157665D01*
X62201361Y-80180318D01*
X62205210Y-80203087D01*
X62209503Y-80221844D01*
X62629308Y-81951269D01*
X62635744Y-81973429D01*
X62641604Y-81995775D01*
X62647549Y-82014076D01*
X63219428Y-83699336D01*
X63227812Y-83720846D01*
X63235632Y-83742573D01*
X63243179Y-83760273D01*
X63962605Y-85388025D01*
X63972863Y-85408695D01*
X63982588Y-85429651D01*
X63991679Y-85446609D01*
X64852954Y-87003963D01*
X64865009Y-87023639D01*
X64876558Y-87043648D01*
X64887121Y-87059731D01*
X64988222Y-87209371D01*
X64930054Y-87183015D01*
X64765282Y-87144596D01*
X64596181Y-87139060D01*
X64429249Y-87166621D01*
X63994582Y-87283090D01*
X63836236Y-87342687D01*
X63692558Y-87432031D01*
X63571673Y-87545252D01*
X63519643Y-87521677D01*
X63397827Y-87493273D01*
X63272810Y-87489180D01*
X63149396Y-87509556D01*
X62991538Y-87555035D01*
X62879285Y-87749463D01*
X63092617Y-88545627D01*
X63111935Y-88540451D01*
X63177676Y-88785797D01*
X63158357Y-88790973D01*
X63163533Y-88810291D01*
X62918187Y-88876032D01*
X62913011Y-88856713D01*
X62140995Y-89063574D01*
X62030229Y-89255427D01*
X61535000Y-88760199D01*
X61535000Y-88698061D01*
X61495226Y-88498102D01*
X61454821Y-88400555D01*
X61808502Y-88400555D01*
X61828878Y-88523969D01*
X61880827Y-88705975D01*
X62075255Y-88818229D01*
X62847271Y-88611367D01*
X62633940Y-87815203D01*
X62439512Y-87702950D01*
X62280063Y-87742494D01*
X62162996Y-87786554D01*
X62056774Y-87852607D01*
X61965480Y-87938114D01*
X61892622Y-88039788D01*
X61840999Y-88153722D01*
X61812595Y-88275538D01*
X61808502Y-88400555D01*
X61454821Y-88400555D01*
X61417205Y-88309744D01*
X61303937Y-88140226D01*
X61159774Y-87996063D01*
X60990256Y-87882795D01*
X60801898Y-87804774D01*
X60601939Y-87765000D01*
X60398061Y-87765000D01*
X60198102Y-87804774D01*
X60009744Y-87882795D01*
X59840226Y-87996063D01*
X59696063Y-88140226D01*
X59582795Y-88309744D01*
X59504774Y-88498102D01*
X59465000Y-88698061D01*
X59465000Y-88901939D01*
X59504774Y-89101898D01*
X59582795Y-89290256D01*
X59696063Y-89459774D01*
X59840226Y-89603937D01*
X60009744Y-89717205D01*
X60198102Y-89795226D01*
X60398061Y-89835000D01*
X60460199Y-89835000D01*
X61516152Y-90890954D01*
X61539951Y-90919953D01*
X61621641Y-90986994D01*
X61655676Y-91014926D01*
X61787705Y-91085498D01*
X61930966Y-91128955D01*
X62079952Y-91143629D01*
X62117285Y-91139952D01*
X62578689Y-91139952D01*
X62632939Y-91197874D01*
X62734613Y-91270732D01*
X62848547Y-91322356D01*
X62970364Y-91350759D01*
X63095381Y-91354852D01*
X63218794Y-91334476D01*
X63713259Y-91201985D01*
X63703394Y-91215751D01*
X63651771Y-91329685D01*
X63623366Y-91451502D01*
X63619274Y-91576519D01*
X63639650Y-91699932D01*
X63685128Y-91857790D01*
X63879556Y-91970044D01*
X64603276Y-91776123D01*
X64396415Y-91004107D01*
X64292793Y-90944281D01*
X64306118Y-90931801D01*
X64378977Y-90830127D01*
X64430600Y-90716193D01*
X64439975Y-90675985D01*
X64468198Y-90706118D01*
X64569872Y-90778976D01*
X64683806Y-90830600D01*
X64701586Y-90834746D01*
X64641760Y-90938367D01*
X64848622Y-91710383D01*
X64867940Y-91705207D01*
X64933681Y-91950553D01*
X64914362Y-91955729D01*
X64919538Y-91975047D01*
X64674192Y-92040788D01*
X64669016Y-92021469D01*
X63945297Y-92215389D01*
X63833043Y-92409817D01*
X63872587Y-92569265D01*
X63916648Y-92686333D01*
X63982700Y-92792554D01*
X64068208Y-92883848D01*
X64169881Y-92956707D01*
X64283758Y-93008303D01*
X64282795Y-93009744D01*
X64204774Y-93198102D01*
X64165000Y-93398061D01*
X64165000Y-93565850D01*
X64042462Y-93553780D01*
X63917981Y-93566041D01*
X63798283Y-93602350D01*
X63687968Y-93661314D01*
X63591277Y-93740667D01*
X63477307Y-93858982D01*
X63477307Y-94083488D01*
X64007107Y-94613288D01*
X64021250Y-94599146D01*
X64200855Y-94778751D01*
X64186712Y-94792893D01*
X64716512Y-95322693D01*
X64941018Y-95322693D01*
X65059333Y-95208723D01*
X65138686Y-95112032D01*
X65197650Y-95001717D01*
X65204461Y-94979263D01*
X65795094Y-95569896D01*
X65733463Y-95635698D01*
X65667410Y-95741919D01*
X65623349Y-95858986D01*
X65577335Y-96042583D01*
X65689588Y-96237011D01*
X66461604Y-96443872D01*
X66466780Y-96424553D01*
X66712126Y-96490294D01*
X66706950Y-96509612D01*
X66726269Y-96514788D01*
X66660528Y-96760134D01*
X66641210Y-96754958D01*
X66427878Y-97551122D01*
X66540131Y-97745550D01*
X66697989Y-97791029D01*
X66821403Y-97811405D01*
X66946420Y-97807312D01*
X67068236Y-97778908D01*
X67120267Y-97755333D01*
X67241150Y-97868553D01*
X67384827Y-97957897D01*
X67543175Y-98017495D01*
X67977842Y-98133964D01*
X68144775Y-98161525D01*
X68313876Y-98155989D01*
X68478648Y-98117570D01*
X68632759Y-98047743D01*
X68770286Y-97949192D01*
X68885944Y-97825705D01*
X68975288Y-97682027D01*
X69034886Y-97523680D01*
X69164295Y-97040717D01*
X69191855Y-96873786D01*
X69186319Y-96704685D01*
X69157893Y-96582771D01*
X69270223Y-96531874D01*
X69371897Y-96459016D01*
X69457404Y-96367721D01*
X69523456Y-96261500D01*
X69567517Y-96144433D01*
X69746663Y-95475851D01*
X70031815Y-95761003D01*
X70055613Y-95790001D01*
X70171338Y-95884974D01*
X70303367Y-95955546D01*
X70446628Y-95999003D01*
X70539072Y-96008108D01*
X70544979Y-96008690D01*
X70590226Y-96053937D01*
X70759744Y-96167205D01*
X70948102Y-96245226D01*
X71148061Y-96285000D01*
X71351939Y-96285000D01*
X71551898Y-96245226D01*
X71740256Y-96167205D01*
X71909774Y-96053937D01*
X72053937Y-95909774D01*
X72167205Y-95740256D01*
X72245226Y-95551898D01*
X72285000Y-95351939D01*
X72285000Y-95148061D01*
X72245226Y-94948102D01*
X72167205Y-94759744D01*
X72053937Y-94590226D01*
X71909774Y-94446063D01*
X71740256Y-94332795D01*
X71551898Y-94254774D01*
X71351939Y-94215000D01*
X71148061Y-94215000D01*
X70948102Y-94254774D01*
X70759744Y-94332795D01*
X70755828Y-94335412D01*
X70200927Y-93780512D01*
X70266328Y-93536433D01*
X70286704Y-93413020D01*
X70282611Y-93288003D01*
X70254208Y-93166186D01*
X70202585Y-93052252D01*
X70129726Y-92950578D01*
X70038432Y-92865071D01*
X69932210Y-92799019D01*
X69815143Y-92754958D01*
X68945810Y-92522021D01*
X68822397Y-92501645D01*
X68697380Y-92505738D01*
X68575563Y-92534141D01*
X68461629Y-92585765D01*
X68359955Y-92658623D01*
X68274448Y-92749918D01*
X68208396Y-92856139D01*
X68164335Y-92973206D01*
X68031844Y-93467669D01*
X68024855Y-93452243D01*
X67951996Y-93350570D01*
X67860702Y-93265062D01*
X67754481Y-93199010D01*
X67637413Y-93154949D01*
X67477965Y-93115405D01*
X67283537Y-93227659D01*
X67089617Y-93951378D01*
X67861633Y-94158240D01*
X67965254Y-94098414D01*
X67969400Y-94116194D01*
X68021023Y-94230128D01*
X68093882Y-94331802D01*
X68124015Y-94360025D01*
X68083807Y-94369400D01*
X67969873Y-94421024D01*
X67868199Y-94493882D01*
X67855719Y-94507207D01*
X67795893Y-94403585D01*
X67023877Y-94196724D01*
X67018701Y-94216043D01*
X66773355Y-94150302D01*
X66778531Y-94130984D01*
X66759212Y-94125808D01*
X66824953Y-93880462D01*
X66844271Y-93885638D01*
X67038192Y-93161918D01*
X66925938Y-92967490D01*
X66768080Y-92922012D01*
X66728818Y-92915530D01*
X66749003Y-92848986D01*
X66760000Y-92737333D01*
X66760000Y-92737323D01*
X66763676Y-92700000D01*
X66760000Y-92662677D01*
X66760000Y-90566708D01*
X66763676Y-90529385D01*
X66760000Y-90492062D01*
X66760000Y-90492053D01*
X66749003Y-90380400D01*
X66705546Y-90237139D01*
X66634974Y-90105110D01*
X66540001Y-89989385D01*
X66511003Y-89965587D01*
X66233461Y-89688045D01*
X66045042Y-88984857D01*
X66011297Y-88895199D01*
X66007813Y-88859824D01*
X65964356Y-88716563D01*
X65893784Y-88584534D01*
X65798811Y-88468809D01*
X65769808Y-88445007D01*
X65621839Y-88297038D01*
X65615702Y-88259868D01*
X65561630Y-88058069D01*
X65883426Y-88534357D01*
X65897196Y-88552902D01*
X65910465Y-88571786D01*
X65922415Y-88586867D01*
X67045862Y-89967090D01*
X67061220Y-89984330D01*
X67076121Y-90001967D01*
X67089364Y-90015926D01*
X68331058Y-91290816D01*
X68347886Y-91306622D01*
X68364297Y-91322865D01*
X68378729Y-91335592D01*
X69728837Y-92495055D01*
X69747006Y-92509304D01*
X69764794Y-92524023D01*
X69780300Y-92535416D01*
X71228133Y-93570273D01*
X71247499Y-93582852D01*
X71266523Y-93595930D01*
X71282980Y-93605899D01*
X72817073Y-94507954D01*
X72837465Y-94518753D01*
X72857592Y-94530097D01*
X72874870Y-94538564D01*
X74483078Y-95300677D01*
X74504370Y-95309630D01*
X74525405Y-95319130D01*
X74543356Y-95326023D01*
X74543367Y-95326027D01*
X74543374Y-95326029D01*
X76212955Y-95942161D01*
X76234953Y-95949184D01*
X76256755Y-95956778D01*
X76275259Y-95962052D01*
X77993010Y-96427331D01*
X78015544Y-96432370D01*
X78037935Y-96437997D01*
X78056835Y-96441604D01*
X79809144Y-96752342D01*
X79832030Y-96755357D01*
X79854839Y-96758972D01*
X79873982Y-96760885D01*
X79873987Y-96760885D01*
X81646982Y-96914623D01*
X81670044Y-96915592D01*
X81693086Y-96917165D01*
X81712326Y-96917369D01*
X83491969Y-96912889D01*
X83515043Y-96911803D01*
X83538115Y-96911322D01*
X83557298Y-96909814D01*
X85329497Y-96747152D01*
X85352363Y-96744022D01*
X85375322Y-96741490D01*
X85394295Y-96738283D01*
X87145018Y-96418726D01*
X87167527Y-96413573D01*
X87190158Y-96409012D01*
X87208771Y-96404131D01*
X88924156Y-95930210D01*
X88946118Y-95923076D01*
X88968254Y-95916522D01*
X88986359Y-95910006D01*
X90652824Y-95285473D01*
X90674057Y-95276419D01*
X90695531Y-95267919D01*
X90712985Y-95259820D01*
X92317335Y-94489620D01*
X92337669Y-94478720D01*
X92358312Y-94468340D01*
X92374977Y-94458721D01*
X93526755Y-93773641D01*
X93481845Y-93872760D01*
X93443426Y-94037532D01*
X93437890Y-94206633D01*
X93465451Y-94373565D01*
X93581920Y-94808232D01*
X93641517Y-94966578D01*
X93730861Y-95110256D01*
X93844082Y-95231141D01*
X93820507Y-95283171D01*
X93792103Y-95404987D01*
X93788010Y-95530004D01*
X93808386Y-95653418D01*
X93853865Y-95811276D01*
X94048293Y-95923529D01*
X94844457Y-95710197D01*
X94839281Y-95690879D01*
X95084627Y-95625138D01*
X95089803Y-95644457D01*
X95109121Y-95639281D01*
X95174862Y-95884627D01*
X95155543Y-95889803D01*
X95160719Y-95909121D01*
X94915373Y-95974862D01*
X94910197Y-95955543D01*
X94114033Y-96168874D01*
X94001780Y-96363302D01*
X94041324Y-96522751D01*
X94073130Y-96607260D01*
X93940226Y-96696063D01*
X93796063Y-96840226D01*
X93682795Y-97009744D01*
X93604774Y-97198102D01*
X93565000Y-97398061D01*
X93565000Y-97601939D01*
X93604774Y-97801898D01*
X93682795Y-97990256D01*
X93796063Y-98159774D01*
X93940226Y-98303937D01*
X94109744Y-98417205D01*
X94298102Y-98495226D01*
X94498061Y-98535000D01*
X94701939Y-98535000D01*
X94901898Y-98495226D01*
X95090256Y-98417205D01*
X95259774Y-98303937D01*
X95314724Y-98248987D01*
X95457932Y-98205546D01*
X95589961Y-98134974D01*
X95705686Y-98040001D01*
X95729489Y-98010997D01*
X96870816Y-96869670D01*
X98211838Y-96869670D01*
X98224099Y-96994151D01*
X98260408Y-97113849D01*
X98319372Y-97224164D01*
X98398725Y-97320855D01*
X98517040Y-97434825D01*
X98741546Y-97434825D01*
X99324379Y-96851992D01*
X98759224Y-96286837D01*
X98534717Y-96286837D01*
X98398725Y-96418485D01*
X98319372Y-96515176D01*
X98260408Y-96625490D01*
X98224099Y-96745188D01*
X98211838Y-96869670D01*
X96870816Y-96869670D01*
X97265956Y-96474531D01*
X97294953Y-96450734D01*
X97336725Y-96399835D01*
X97389926Y-96335010D01*
X97460498Y-96202980D01*
X97460885Y-96201705D01*
X97497874Y-96167061D01*
X97570732Y-96065387D01*
X97622356Y-95951453D01*
X97638380Y-95882725D01*
X98938829Y-95882725D01*
X98938829Y-96107232D01*
X99503984Y-96672387D01*
X100086817Y-96089554D01*
X100086817Y-95865048D01*
X99972847Y-95746733D01*
X99876156Y-95667380D01*
X99765841Y-95608416D01*
X99646143Y-95572107D01*
X99521662Y-95559846D01*
X99397180Y-95572107D01*
X99277482Y-95608416D01*
X99167168Y-95667380D01*
X99070477Y-95746733D01*
X98938829Y-95882725D01*
X97638380Y-95882725D01*
X97650759Y-95829636D01*
X97654852Y-95704619D01*
X97634476Y-95581206D01*
X97501985Y-95086741D01*
X97515751Y-95096606D01*
X97629685Y-95148229D01*
X97751502Y-95176634D01*
X97876519Y-95180726D01*
X97999932Y-95160350D01*
X98157790Y-95114872D01*
X98270044Y-94920444D01*
X98076123Y-94196724D01*
X97304107Y-94403585D01*
X97244281Y-94507207D01*
X97231801Y-94493882D01*
X97130127Y-94421023D01*
X97016193Y-94369400D01*
X96975985Y-94360025D01*
X97006118Y-94331802D01*
X97078976Y-94230128D01*
X97130600Y-94116194D01*
X97134746Y-94098414D01*
X97238367Y-94158240D01*
X97928450Y-93973332D01*
X98299932Y-93973332D01*
X98340788Y-94125808D01*
X98321469Y-94130984D01*
X98515389Y-94854703D01*
X98709817Y-94966957D01*
X98869265Y-94927413D01*
X98986333Y-94883352D01*
X99092554Y-94817300D01*
X99183848Y-94731792D01*
X99256707Y-94630119D01*
X99308329Y-94516185D01*
X99336734Y-94394368D01*
X99340827Y-94269351D01*
X99320450Y-94145938D01*
X99287913Y-94036376D01*
X99178719Y-93973332D01*
X99475785Y-93973332D01*
X99482795Y-93990256D01*
X99596063Y-94159774D01*
X99740226Y-94303937D01*
X99909744Y-94417205D01*
X100027642Y-94466040D01*
X100002350Y-94513358D01*
X99966041Y-94633056D01*
X99953780Y-94757538D01*
X99966041Y-94882019D01*
X100002350Y-95001717D01*
X100061314Y-95112032D01*
X100140667Y-95208723D01*
X100258982Y-95322693D01*
X100483488Y-95322693D01*
X101013288Y-94792893D01*
X100999146Y-94778751D01*
X101178751Y-94599146D01*
X101192893Y-94613288D01*
X101722693Y-94083488D01*
X101722693Y-93858982D01*
X101608723Y-93740667D01*
X101512032Y-93661314D01*
X101431728Y-93618391D01*
X101435000Y-93601939D01*
X101435000Y-93439801D01*
X101996158Y-92878644D01*
X102035113Y-92915130D01*
X102141334Y-92981183D01*
X102258401Y-93025244D01*
X102441998Y-93071258D01*
X102522560Y-93024745D01*
X102881771Y-93024745D01*
X102994025Y-93219173D01*
X103176031Y-93271122D01*
X103299445Y-93291498D01*
X103424462Y-93287405D01*
X103546278Y-93259001D01*
X103660212Y-93207378D01*
X103761886Y-93134520D01*
X103847393Y-93043226D01*
X103913446Y-92937004D01*
X103957506Y-92819937D01*
X103997050Y-92660488D01*
X103884797Y-92466060D01*
X103088633Y-92252729D01*
X102881771Y-93024745D01*
X102522560Y-93024745D01*
X102636426Y-92959005D01*
X102843287Y-92186989D01*
X102823968Y-92181813D01*
X102889709Y-91936467D01*
X102909027Y-91941643D01*
X102914203Y-91922324D01*
X103159549Y-91988065D01*
X103154373Y-92007383D01*
X103950537Y-92220715D01*
X104144965Y-92108462D01*
X104190444Y-91950604D01*
X104210820Y-91827190D01*
X104206727Y-91702173D01*
X104178323Y-91580357D01*
X104154748Y-91528326D01*
X104267968Y-91407443D01*
X104357312Y-91263766D01*
X104416910Y-91105418D01*
X104533379Y-90670751D01*
X104560940Y-90503818D01*
X104555404Y-90334717D01*
X104516985Y-90169945D01*
X104447158Y-90015834D01*
X104348607Y-89878307D01*
X104225120Y-89762649D01*
X104081442Y-89673305D01*
X103923095Y-89613707D01*
X103471112Y-89492599D01*
X103553937Y-89409774D01*
X103667205Y-89240256D01*
X103745226Y-89051898D01*
X103785000Y-88851939D01*
X103785000Y-88648061D01*
X103745226Y-88448102D01*
X103667205Y-88259744D01*
X103553937Y-88090226D01*
X103409774Y-87946063D01*
X103240256Y-87832795D01*
X103051898Y-87754774D01*
X102851939Y-87715000D01*
X102648061Y-87715000D01*
X102448102Y-87754774D01*
X102259744Y-87832795D01*
X102090226Y-87946063D01*
X102046289Y-87990000D01*
X101041708Y-87990000D01*
X101004385Y-87986324D01*
X100967062Y-87990000D01*
X100967053Y-87990000D01*
X100855400Y-88000997D01*
X100712139Y-88044454D01*
X100580110Y-88115026D01*
X100464385Y-88209999D01*
X100440587Y-88238997D01*
X100080512Y-88599073D01*
X99836433Y-88533672D01*
X99713020Y-88513296D01*
X99588003Y-88517389D01*
X99466186Y-88545792D01*
X99352252Y-88597415D01*
X99250578Y-88670274D01*
X99165071Y-88761568D01*
X99099019Y-88867790D01*
X99054958Y-88984857D01*
X98822021Y-89854190D01*
X98801645Y-89977603D01*
X98805738Y-90102620D01*
X98834141Y-90224437D01*
X98885765Y-90338371D01*
X98958623Y-90440045D01*
X99049918Y-90525552D01*
X99156139Y-90591604D01*
X99273206Y-90635665D01*
X99767669Y-90768156D01*
X99752243Y-90775145D01*
X99650570Y-90848004D01*
X99565062Y-90939298D01*
X99499010Y-91045519D01*
X99454949Y-91162587D01*
X99415405Y-91322035D01*
X99527659Y-91516463D01*
X100251378Y-91710383D01*
X100458240Y-90938367D01*
X100398414Y-90834746D01*
X100416194Y-90830600D01*
X100530128Y-90778977D01*
X100631802Y-90706118D01*
X100660025Y-90675985D01*
X100669400Y-90716193D01*
X100721024Y-90830127D01*
X100793882Y-90931801D01*
X100807207Y-90944281D01*
X100703585Y-91004107D01*
X100496724Y-91776123D01*
X100516043Y-91781299D01*
X100450302Y-92026645D01*
X100430984Y-92021469D01*
X100425808Y-92040788D01*
X100180462Y-91975047D01*
X100185638Y-91955729D01*
X99461918Y-91761808D01*
X99267490Y-91874062D01*
X99222012Y-92031920D01*
X99201636Y-92155333D01*
X99205728Y-92280350D01*
X99234133Y-92402167D01*
X99257316Y-92453332D01*
X96453387Y-92453332D01*
X96416054Y-92449655D01*
X96378721Y-92453332D01*
X96267068Y-92464329D01*
X96123807Y-92507786D01*
X96039866Y-92552654D01*
X95284857Y-92754958D01*
X95167790Y-92799019D01*
X95061569Y-92865071D01*
X94970274Y-92950578D01*
X94955706Y-92970908D01*
X94947806Y-92977391D01*
X94947802Y-92977395D01*
X94918809Y-93001189D01*
X94895015Y-93030183D01*
X94764377Y-93160820D01*
X94725630Y-93159552D01*
X94558698Y-93187112D01*
X94322911Y-93250291D01*
X95401781Y-92470919D01*
X95419887Y-92456572D01*
X95438342Y-92442718D01*
X95453021Y-92430315D01*
X95453040Y-92430300D01*
X95453052Y-92430288D01*
X96797293Y-91264053D01*
X96814045Y-91248159D01*
X96831203Y-91232713D01*
X96844739Y-91219038D01*
X98079997Y-89937912D01*
X98095265Y-89920598D01*
X98110987Y-89903682D01*
X98123254Y-89888857D01*
X99239738Y-88502996D01*
X99253411Y-88484387D01*
X99267562Y-88466147D01*
X99278451Y-88450306D01*
X99278462Y-88450291D01*
X99278468Y-88450280D01*
X100267330Y-86970666D01*
X100279280Y-86950938D01*
X100291768Y-86931490D01*
X100301216Y-86914728D01*
X101154640Y-85353057D01*
X101164799Y-85332325D01*
X101175499Y-85311863D01*
X101183419Y-85294327D01*
X101894640Y-83662975D01*
X101902917Y-83641417D01*
X101911754Y-83620089D01*
X101918084Y-83601919D01*
X102481471Y-81913801D01*
X102487799Y-81891592D01*
X102494705Y-81869564D01*
X102499395Y-81850903D01*
X102910487Y-80119387D01*
X102914814Y-80096717D01*
X102919737Y-80074149D01*
X102922749Y-80055144D01*
X103178293Y-78293938D01*
X103180587Y-78270977D01*
X103183485Y-78248057D01*
X103184795Y-78228860D01*
X103282766Y-76451911D01*
X103283010Y-76428839D01*
X103283859Y-76405751D01*
X103283458Y-76386513D01*
X103223080Y-74607889D01*
X103221270Y-74584856D01*
X103220064Y-74561813D01*
X103217955Y-74542688D01*
X102999707Y-72776473D01*
X102995861Y-72753724D01*
X102992608Y-72730848D01*
X102988806Y-72711985D01*
X102614417Y-70972165D01*
X102608559Y-70949825D01*
X102603290Y-70927352D01*
X102597827Y-70908902D01*
X102070258Y-69209248D01*
X102062432Y-69187505D01*
X102055191Y-69165602D01*
X102048110Y-69147711D01*
X101371541Y-67501685D01*
X101361821Y-67480741D01*
X101352654Y-67459550D01*
X101344010Y-67442359D01*
X100523796Y-65862993D01*
X100512247Y-65842986D01*
X100501238Y-65822705D01*
X100491100Y-65806350D01*
X99533739Y-64306149D01*
X99520459Y-64287250D01*
X99507689Y-64268025D01*
X99496153Y-64252658D01*
X99496138Y-64252637D01*
X99496127Y-64252623D01*
X98409205Y-62843479D01*
X98394320Y-62825861D01*
X98379870Y-62807821D01*
X98366996Y-62793521D01*
X98116423Y-62522397D01*
X98801645Y-62522397D01*
X98822021Y-62645810D01*
X99054958Y-63515143D01*
X99099019Y-63632210D01*
X99165071Y-63738431D01*
X99250578Y-63829726D01*
X99352252Y-63902584D01*
X99466186Y-63954208D01*
X99549701Y-63973681D01*
X99719681Y-64143661D01*
X99735705Y-64240717D01*
X99865114Y-64723680D01*
X99924713Y-64882029D01*
X100014057Y-65025706D01*
X100129716Y-65149193D01*
X100267243Y-65247744D01*
X100421353Y-65317570D01*
X100586125Y-65355989D01*
X100755226Y-65361525D01*
X100911709Y-65335689D01*
X101087023Y-65511002D01*
X101110821Y-65540001D01*
X101139819Y-65563799D01*
X101226546Y-65634974D01*
X101358575Y-65705546D01*
X101501836Y-65749003D01*
X101650822Y-65763677D01*
X101688155Y-65760000D01*
X104762678Y-65760000D01*
X104800000Y-65763676D01*
X104837322Y-65760000D01*
X104837333Y-65760000D01*
X104948986Y-65749003D01*
X105092247Y-65705546D01*
X105224276Y-65634974D01*
X105340001Y-65540001D01*
X105363803Y-65510998D01*
X105439801Y-65435000D01*
X105501939Y-65435000D01*
X105701898Y-65395226D01*
X105890256Y-65317205D01*
X106059774Y-65203937D01*
X106203937Y-65059774D01*
X106317205Y-64890256D01*
X106395226Y-64701898D01*
X106435000Y-64501939D01*
X106435000Y-64298061D01*
X106395226Y-64098102D01*
X106317205Y-63909744D01*
X106203937Y-63740226D01*
X106059774Y-63596063D01*
X105890256Y-63482795D01*
X105701898Y-63404774D01*
X105501939Y-63365000D01*
X105298061Y-63365000D01*
X105098102Y-63404774D01*
X104909744Y-63482795D01*
X104740226Y-63596063D01*
X104596063Y-63740226D01*
X104482795Y-63909744D01*
X104404774Y-64098102D01*
X104376549Y-64240000D01*
X103535325Y-64240000D01*
X103538812Y-64225047D01*
X103542905Y-64100030D01*
X103522529Y-63976616D01*
X103470580Y-63794610D01*
X103276152Y-63682356D01*
X102504136Y-63889218D01*
X102509312Y-63908536D01*
X102263966Y-63974277D01*
X102258790Y-63954958D01*
X102239472Y-63960134D01*
X102173731Y-63714788D01*
X102193050Y-63709612D01*
X102187874Y-63690294D01*
X102433220Y-63624553D01*
X102438396Y-63643872D01*
X103210412Y-63437011D01*
X103322665Y-63242583D01*
X103276651Y-63058986D01*
X103232590Y-62941919D01*
X103166537Y-62835698D01*
X103081030Y-62744404D01*
X102979357Y-62671545D01*
X102914917Y-62642348D01*
X102915994Y-62609455D01*
X102895618Y-62486042D01*
X102809640Y-62165166D01*
X102939806Y-62035000D01*
X103001943Y-62035000D01*
X103201902Y-61995226D01*
X103390260Y-61917205D01*
X103559778Y-61803937D01*
X103703941Y-61659774D01*
X103817209Y-61490256D01*
X103895230Y-61301898D01*
X103935004Y-61101939D01*
X103935004Y-60898061D01*
X103895230Y-60698102D01*
X103817209Y-60509744D01*
X103703941Y-60340226D01*
X103617121Y-60253406D01*
X103636817Y-60232960D01*
X103636817Y-60008454D01*
X103053984Y-59425621D01*
X102488829Y-59990776D01*
X102488829Y-60050038D01*
X102409748Y-60082795D01*
X102240230Y-60196063D01*
X102096067Y-60340226D01*
X101982799Y-60509744D01*
X101904778Y-60698102D01*
X101865004Y-60898061D01*
X101865004Y-60960198D01*
X101578594Y-61246608D01*
X101386741Y-61298015D01*
X101396606Y-61284249D01*
X101448229Y-61170315D01*
X101476634Y-61048498D01*
X101480726Y-60923481D01*
X101460350Y-60800068D01*
X101414872Y-60642210D01*
X101220444Y-60529956D01*
X100496724Y-60723877D01*
X100703585Y-61495893D01*
X100807207Y-61555719D01*
X100793882Y-61568199D01*
X100721023Y-61669873D01*
X100669400Y-61783807D01*
X100660025Y-61824015D01*
X100631802Y-61793882D01*
X100530128Y-61721024D01*
X100416194Y-61669400D01*
X100398414Y-61665254D01*
X100458240Y-61561633D01*
X100251378Y-60789617D01*
X99527659Y-60983537D01*
X99415405Y-61177965D01*
X99454949Y-61337413D01*
X99499010Y-61454481D01*
X99565062Y-61560702D01*
X99650570Y-61651996D01*
X99752243Y-61724855D01*
X99767669Y-61731844D01*
X99273206Y-61864335D01*
X99156139Y-61908396D01*
X99049917Y-61974448D01*
X98958623Y-62059955D01*
X98885764Y-62161629D01*
X98834141Y-62275563D01*
X98805738Y-62397380D01*
X98801645Y-62522397D01*
X98116423Y-62522397D01*
X97159101Y-61486564D01*
X97142698Y-61470328D01*
X97126712Y-61453655D01*
X97112618Y-61440556D01*
X95902145Y-60344667D01*
X99201636Y-60344667D01*
X99222012Y-60468080D01*
X99267490Y-60625938D01*
X99461918Y-60738192D01*
X100185638Y-60544271D01*
X99978777Y-59772255D01*
X99864912Y-59706515D01*
X100224122Y-59706515D01*
X100430984Y-60478531D01*
X101154703Y-60284611D01*
X101266957Y-60090183D01*
X101227413Y-59930735D01*
X101183352Y-59813667D01*
X101117300Y-59707446D01*
X101031792Y-59616152D01*
X100930119Y-59543293D01*
X100816185Y-59491671D01*
X100694368Y-59463266D01*
X100569351Y-59459173D01*
X100445938Y-59479550D01*
X100336376Y-59512087D01*
X100224122Y-59706515D01*
X99864912Y-59706515D01*
X99784349Y-59660002D01*
X99673197Y-59686605D01*
X99556130Y-59730665D01*
X99449908Y-59796718D01*
X99358614Y-59882225D01*
X99285756Y-59983899D01*
X99234133Y-60097833D01*
X99205728Y-60219650D01*
X99201636Y-60344667D01*
X95902145Y-60344667D01*
X95793324Y-60246148D01*
X95775542Y-60231434D01*
X95758138Y-60216249D01*
X95742935Y-60204454D01*
X94322688Y-59132052D01*
X94303681Y-59118986D01*
X94284984Y-59105399D01*
X94268793Y-59095002D01*
X92758837Y-58153097D01*
X92738711Y-58141754D01*
X92718912Y-58129902D01*
X92701861Y-58120985D01*
X91114154Y-57317036D01*
X91093093Y-57307524D01*
X91072325Y-57297482D01*
X91054549Y-57290116D01*
X89401662Y-56630488D01*
X89379842Y-56622887D01*
X89358261Y-56614730D01*
X89339910Y-56608977D01*
X89339895Y-56608972D01*
X87634918Y-56098890D01*
X87612547Y-56093268D01*
X87590288Y-56087051D01*
X87571488Y-56082950D01*
X85827914Y-55726448D01*
X85805115Y-55722835D01*
X85782408Y-55718624D01*
X85763319Y-55716211D01*
X83994955Y-55516114D01*
X83971926Y-55514542D01*
X83948933Y-55512366D01*
X83929706Y-55511659D01*
X83929704Y-55511659D01*
X82150554Y-55469552D01*
X82127470Y-55470033D01*
X82104383Y-55469910D01*
X82085167Y-55470915D01*
X80309318Y-55587130D01*
X80286367Y-55589661D01*
X80263359Y-55591591D01*
X80244309Y-55594300D01*
X78854869Y-55810496D01*
X62199847Y-39137818D01*
X62199847Y-39025520D01*
X61164466Y-37990139D01*
X61150324Y-38004282D01*
X60970719Y-37824677D01*
X60984861Y-37810534D01*
X60970719Y-37796392D01*
X61086633Y-37680478D01*
X61979001Y-38572846D01*
G37*
%TD.AperFunction*%
%TD*%
M02*
